<?xml version="1.0" encoding="UTF-8" standalone="no"?>
<!-- Created with Inkscape (http://www.inkscape.org/) -->

<svg
   xmlns:dc="http://purl.org/dc/elements/1.1/"
   xmlns:cc="http://creativecommons.org/ns#"
   xmlns:rdf="http://www.w3.org/1999/02/22-rdf-syntax-ns#"
   xmlns:svg="http://www.w3.org/2000/svg"
   xmlns="http://www.w3.org/2000/svg"
   xmlns:sodipodi="http://sodipodi.sourceforge.net/DTD/sodipodi-0.dtd"
   xmlns:inkscape="http://www.inkscape.org/namespaces/inkscape"
   width="480"
   height="480"
   viewBox="0 0 127 127"
   version="1.1"
   id="svg98"
   inkscape:version="0.92.2 (5c3e80d, 2017-08-06)"
   sodipodi:docname="wq-modules.svg">
  <defs
     id="defs92" />
  <sodipodi:namedview
     id="base"
     pagecolor="#ffffff"
     bordercolor="#666666"
     borderopacity="1.0"
     inkscape:pageopacity="0.0"
     inkscape:pageshadow="2"
     inkscape:zoom="1.4"
     inkscape:cx="190.24535"
     inkscape:cy="253.26338"
     inkscape:document-units="mm"
     inkscape:current-layer="layer1"
     showgrid="true"
     units="px"
     inkscape:window-width="1920"
     inkscape:window-height="1057"
     inkscape:window-x="-8"
     inkscape:window-y="-8"
     inkscape:window-maximized="1">
    <inkscape:grid
       type="xygrid"
       id="grid100"
       spacingx="2.1166667"
       spacingy="2.1166667"
       empspacing="12" />
  </sodipodi:namedview>
  <metadata
     id="metadata95">
    <rdf:RDF>
      <cc:Work
         rdf:about="">
        <dc:format>image/svg+xml</dc:format>
        <dc:type
           rdf:resource="http://purl.org/dc/dcmitype/StillImage" />
        <dc:title />
      </cc:Work>
    </rdf:RDF>
  </metadata>
  <g
     inkscape:groupmode="layer"
     id="layer2"
     inkscape:label="Background"
     style="display:inline"
     sodipodi:insensitive="true">
    <rect
       style="fill:#0d1117;fill-opacity:1;stroke:none;stroke-width:1.58749998;stroke-linecap:round;stroke-linejoin:round;stroke-miterlimit:4;stroke-dasharray:none;stroke-opacity:1"
       id="rect1580"
       width="127"
       height="127"
       x="0"
       y="-2e-006"
       ry="0.013177573" />
  </g>
  <g
     inkscape:label="Layer 1"
     inkscape:groupmode="layer"
     id="layer1"
     transform="translate(0,-169.99998)">
    <path
       style="fill:#8b23c5;fill-opacity:0.17647059;stroke:#8b23c5;stroke-width:2.00000003;stroke-linecap:round;stroke-linejoin:round;stroke-miterlimit:4;stroke-dasharray:none;stroke-opacity:1"
       d="M 221.93555 208 C 218.64775 208 216 210.64775 216 213.93555 L 216 266.06445 C 216 269.35225 218.64775 272 221.93555 272 L 418.06445 272 C 421.35225 272 424 269.35225 424 266.06445 L 424 213.93555 C 424 210.64775 421.35225 208 418.06445 208 L 221.93555 208 z M 362.07422 220.68555 L 368.83203 220.68555 L 368.83203 228.67773 L 373.85938 228.67773 L 373.85938 232.77344 L 368.83203 232.77344 L 368.83203 248.30859 C 368.83203 249.44081 369.00084 250.32237 369.33594 250.95508 C 369.67103 251.58779 370.13475 252.07129 370.73047 252.4043 C 371.36342 252.7373 372.05222 252.95479 372.79688 253.05469 C 373.57876 253.12129 374.39951 253.1543 375.25586 253.1543 L 375.25586 256.84961 C 374.77184 256.91621 374.28676 256.9667 373.80273 257 C 373.39318 257.0333 372.89064 257.05078 372.29492 257.05078 C 371.73643 257.08408 371.17763 257.09961 370.61914 257.09961 C 370.06065 257.09961 369.48439 257.08408 368.88867 257.05078 C 368.33018 257.01748 367.84511 256.96699 367.43555 256.90039 C 366.16964 256.70059 365.18398 256.21708 364.47656 255.45117 C 363.76914 254.65196 363.22975 253.78593 362.85742 252.85352 C 362.52233 251.8878 362.29724 250.95576 362.18555 250.05664 C 362.11108 249.15753 362.07422 248.45849 362.07422 247.95898 L 362.07422 232.77344 L 357.94141 232.77344 L 357.94141 228.67773 L 362.07422 228.67773 L 362.07422 220.68555 z M 301.58984 228.37891 L 301.58984 233.17383 C 300.21224 233.40693 299.07718 233.90596 298.18359 234.67188 C 297.29001 235.43779 296.5818 236.3213 296.06055 237.32031 C 295.57652 238.28603 295.2234 239.28409 295 240.31641 C 294.81384 241.34872 294.7207 242.23028 294.7207 242.96289 C 294.7207 244.26161 294.88756 245.47716 295.22266 246.60938 C 295.59498 247.70829 296.15379 248.6753 296.89844 249.50781 C 297.64309 250.30703 298.55502 250.95557 299.63477 251.45508 C 300.75174 251.92129 302.09248 252.1543 303.65625 252.1543 C 304.06581 252.1543 304.56834 252.12129 305.16406 252.05469 C 305.79702 251.95479 306.44895 251.80527 307.11914 251.60547 C 307.82656 251.37236 308.51536 251.08886 309.18555 250.75586 C 309.89297 250.42285 310.50804 250.02285 311.0293 249.55664 L 313.48633 252.9043 C 312.25765 254.26962 310.82378 255.30264 309.18555 256.00195 C 307.54731 256.70126 305.46346 257.05078 302.93164 257.05078 C 300.88385 257.05078 298.9649 256.68378 297.17773 255.95117 C 295.39057 255.18526 293.86552 254.15224 292.59961 252.85352 C 291.3337 251.55479 290.32668 250.04022 289.58203 248.30859 C 288.83738 246.57697 288.4668 244.71288 288.4668 242.71484 C 288.4668 240.81671 288.80052 239.01864 289.4707 237.32031 C 290.17812 235.62199 291.12887 234.13847 292.32031 232.87305 C 293.51176 231.57433 294.88936 230.52578 296.45312 229.72656 C 298.05413 228.92735 299.76545 228.47881 301.58984 228.37891 z M 395.52734 228.37891 L 395.52734 233.17383 C 394.14974 233.40693 393.01468 233.90596 392.12109 234.67188 C 391.22751 235.43779 390.52126 236.3213 390 237.32031 C 389.51598 238.28603 389.1609 239.28409 388.9375 240.31641 C 388.75134 241.34872 388.6582 242.23028 388.6582 242.96289 C 388.6582 244.26161 388.82702 245.47716 389.16211 246.60938 C 389.53444 247.70829 390.09324 248.6753 390.83789 249.50781 C 391.58254 250.30703 392.49447 250.95557 393.57422 251.45508 C 394.6912 251.92129 396.02998 252.1543 397.59375 252.1543 C 398.00331 252.1543 398.50779 252.12129 399.10352 252.05469 C 399.73647 251.95479 400.38645 251.80527 401.05664 251.60547 C 401.76406 251.37236 402.45286 251.08886 403.12305 250.75586 C 403.83047 250.42285 404.44554 250.02285 404.9668 249.55664 L 407.42383 252.9043 C 406.19515 254.26962 404.76128 255.30264 403.12305 256.00195 C 401.48481 256.70126 399.40096 257.05078 396.86914 257.05078 C 394.82135 257.05078 392.9024 256.68378 391.11523 255.95117 C 389.32807 255.18526 387.80302 254.15224 386.53711 252.85352 C 385.2712 251.55479 384.26614 250.04022 383.52148 248.30859 C 382.77683 246.57697 382.4043 244.71288 382.4043 242.71484 C 382.4043 240.81671 382.73802 239.01864 383.4082 237.32031 C 384.11562 235.62199 385.06637 234.13847 386.25781 232.87305 C 387.44926 231.57433 388.82686 230.52578 390.39062 229.72656 C 391.99163 228.92735 393.70295 228.47881 395.52734 228.37891 z M 303.88086 228.42773 C 305.89142 228.59424 307.69587 229.07774 309.29688 229.87695 C 310.93511 230.67617 312.33212 231.70919 313.48633 232.97461 C 314.64054 234.24003 315.51561 235.68859 316.11133 237.32031 C 316.74428 238.95204 317.06055 240.64913 317.06055 242.41406 C 317.06055 243.21328 317.00428 244.01329 316.89258 244.8125 L 297.73633 244.8125 L 297.73633 240.41602 L 310.63867 240.41602 C 310.63867 239.5502 310.46986 238.71718 310.13477 237.91797 C 309.8369 237.11876 309.37124 236.38671 308.73828 235.7207 C 308.14256 235.02139 307.4363 234.43886 306.61719 233.97266 C 305.79807 233.50645 304.88614 233.22295 303.88086 233.12305 L 303.88086 228.42773 z M 397.81836 228.42773 C 399.82892 228.59424 401.63533 229.07774 403.23633 229.87695 C 404.87456 230.67617 406.26962 231.70919 407.42383 232.97461 C 408.57804 234.24003 409.45311 235.68859 410.04883 237.32031 C 410.68178 238.95204 410.99805 240.64913 410.99805 242.41406 C 410.99805 243.21328 410.94178 244.01329 410.83008 244.8125 L 391.67383 244.8125 L 391.67383 240.41602 L 404.57617 240.41602 C 404.57617 239.5502 404.40736 238.71718 404.07227 237.91797 C 403.7744 237.11876 403.31069 236.38671 402.67773 235.7207 C 402.08201 235.02139 401.3738 234.43886 400.55469 233.97266 C 399.73557 233.50645 398.82364 233.22295 397.81836 233.12305 L 397.81836 228.42773 z M 282.04297 228.47852 L 282.04297 234.77148 C 281.00046 234.50508 279.7354 234.35557 278.24609 234.32227 C 277.42698 234.32227 276.58877 234.38828 275.73242 234.52148 C 274.9133 234.62139 274.13137 234.78838 273.38672 235.02148 L 273.38672 229.92578 C 274.31753 229.45957 275.43514 229.11006 276.73828 228.87695 C 278.04142 228.61055 279.80901 228.47852 282.04297 228.47852 z M 338.67383 228.47852 C 339.79081 228.47852 340.87155 228.57754 341.91406 228.77734 C 342.99381 228.97715 343.96201 229.31114 344.81836 229.77734 C 345.71194 230.24355 346.47447 230.87657 347.10742 231.67578 C 347.77761 232.44169 348.24328 233.40675 348.50391 234.57227 C 348.76453 235.73778 348.93139 236.92032 349.00586 238.11914 C 349.11756 239.28466 349.17383 240.44972 349.17383 241.61523 L 349.17383 248.10938 L 349.17383 248.50781 C 349.17383 248.77422 349.19324 249.17422 349.23047 249.70703 C 349.2677 250.20654 349.34143 250.72305 349.45312 251.25586 C 349.56482 251.78867 349.73168 252.27217 349.95508 252.70508 C 350.21571 253.13799 350.55138 253.41953 350.96094 253.55273 L 349.17383 256.90039 C 348.6898 256.90039 348.16786 256.79941 347.60938 256.59961 C 347.08812 256.39981 346.56813 256.11826 346.04688 255.75195 C 345.56285 255.38565 345.13404 254.98564 344.76172 254.55273 C 344.42663 254.08653 344.16663 253.5875 343.98047 253.05469 C 343.60814 253.8872 342.86307 254.63477 341.74609 255.30078 C 340.66635 255.93349 339.45561 256.40147 338.11523 256.70117 L 338.11523 252.9043 C 339.00882 252.73779 339.81016 252.42129 340.51758 251.95508 C 341.26223 251.45557 341.89476 250.87304 342.41602 250.20703 L 342.41602 239.66797 C 342.41602 238.03624 342.32288 236.7372 342.13672 235.77148 C 341.95056 234.80577 341.63429 234.10674 341.1875 233.67383 C 340.74071 233.20762 340.18191 232.92412 339.51172 232.82422 C 338.87876 232.69102 338.11624 232.625 337.22266 232.625 C 336.40354 232.625 335.62161 232.72402 334.87695 232.92383 C 334.16953 233.09033 333.49819 233.30586 332.86523 233.57227 C 332.26951 233.80537 331.73012 234.07334 331.24609 234.37305 C 330.7993 234.67275 330.46363 234.90576 330.24023 235.07227 L 327.72852 231.625 C 328.10084 231.25869 328.65769 230.8917 329.40234 230.52539 C 330.147 230.12578 331.00461 229.77627 331.97266 229.47656 C 332.9407 229.17686 333.98263 228.94385 335.09961 228.77734 C 336.25382 228.57754 337.44515 228.47852 338.67383 228.47852 z M 244.00977 228.57812 L 244.00977 233.42383 C 242.14814 233.79013 240.65995 234.8212 239.54297 236.51953 C 238.42599 238.18456 237.86719 240.21564 237.86719 242.61328 C 237.86719 243.8454 237.99718 245.01241 238.25781 246.11133 C 238.55567 247.17695 238.96507 248.12452 239.48633 248.95703 C 240.00758 249.78954 240.64011 250.49053 241.38477 251.05664 C 242.16665 251.62275 243.04172 251.97227 244.00977 252.10547 L 244.00977 257.05078 C 241.96197 256.95088 240.1187 256.51787 238.48047 255.75195 C 236.84223 254.95274 235.44718 253.91972 234.29297 252.6543 C 233.13876 251.35558 232.24428 249.85653 231.61133 248.1582 C 231.01561 246.45988 230.71875 244.6618 230.71875 242.76367 C 230.71875 240.86554 231.01561 239.08495 231.61133 237.41992 C 232.24428 235.7549 233.15621 234.28886 234.34766 233.02344 C 235.5391 231.75802 236.93611 230.74247 238.53711 229.97656 C 240.17534 229.17735 241.9992 228.71133 244.00977 228.57812 z M 246.30078 228.57812 C 248.34857 228.67803 250.09676 229.07803 251.54883 229.77734 C 253.03813 230.44335 254.37887 231.42589 255.57031 232.72461 L 252.55469 235.9707 C 251.9962 235.37129 251.21426 234.82177 250.20898 234.32227 C 249.24094 233.78946 247.93902 233.47295 246.30078 233.37305 L 246.30078 228.57812 z M 264.33984 228.67773 L 270.37109 228.67773 L 271.09766 231.57422 L 271.09766 246.85938 L 271.09766 246.95898 L 271.09766 256.84961 L 264.33984 256.84961 L 264.33984 228.67773 z M 337.66797 239.66797 L 340.12695 239.66797 L 340.12695 243.21289 L 338.89648 243.21289 C 338.15183 243.21289 337.37185 243.28086 336.55273 243.41406 C 335.73362 243.54726 334.96914 243.7958 334.26172 244.16211 C 333.5543 244.52842 332.95863 245.06241 332.47461 245.76172 C 332.02782 246.42773 331.80469 247.29376 331.80469 248.35938 C 331.80469 249.8579 332.14036 250.97247 332.81055 251.70508 C 333.51797 252.43769 334.52303 252.8707 335.82617 253.00391 L 335.82617 257.05078 C 335.67724 257.08408 335.4347 257.09961 335.09961 257.09961 C 333.8337 257.09961 332.60551 256.9501 331.41406 256.65039 C 330.25985 256.35069 329.23538 255.86718 328.3418 255.20117 C 327.44821 254.53516 326.74196 253.65361 326.2207 252.55469 C 325.73668 251.45577 325.49414 250.10624 325.49414 248.50781 C 325.49414 246.97599 325.84727 245.66142 326.55469 244.5625 C 327.29934 243.43028 328.23068 242.51376 329.34766 241.81445 C 330.50187 241.08184 331.80379 240.5498 333.25586 240.2168 C 334.70793 239.85049 336.17866 239.66797 337.66797 239.66797 z M 252.44336 249.6582 L 254.95703 252.9043 C 253.80282 254.20302 252.55522 255.20108 251.21484 255.90039 C 249.87447 256.5664 248.23688 256.95088 246.30078 257.05078 L 246.30078 252.10547 C 247.64116 251.97227 248.77622 251.68877 249.70703 251.25586 C 250.67508 250.78965 251.58701 250.25761 252.44336 249.6582 z "
       transform="matrix(0.26458333,0,0,0.26458333,0,169.99998)"
       id="rect854" />
    <path
       style="fill:#4800ff;fill-opacity:1;stroke:none;stroke-width:0.26458332;stroke-linecap:round;stroke-linejoin:round;stroke-miterlimit:4;stroke-dasharray:none;stroke-opacity:1"
       d="m 46.5667,178.46658 a 4.233333,4.233333 0 0 0 -2.991548,1.24178 l -0.0021,-0.002 -4.490165,4.49016 -2.9931,-2.9931 -2.993616,2.9931 -2.618961,-2.61896 -1.497066,1.49655 2.619478,2.61948 1.496549,1.49655 1.497067,-1.49655 1.496549,-1.49707 1.496551,1.49707 1.496549,1.49655 3.398759,-3.39876 a 4.233333,4.233333 0 0 0 4.085021,3.14193 4.233333,4.233333 0 0 0 2.116667,-0.57155 v 4.80488 h 2.116667 v -8.46667 a 4.233333,4.233333 0 0 0 -4.233334,-4.23333 z m 0,2.11667 a 2.1166665,2.1166665 0 0 1 2.116667,2.11666 2.1166665,2.1166665 0 0 1 -2.116667,2.11667 2.1166665,2.1166665 0 0 1 -2.116666,-2.11667 2.1166665,2.1166665 0 0 1 2.116666,-2.11666 z"
       id="rect110"
       inkscape:connector-curvature="0" />
    <circle
       style="fill:#4800ff;fill-opacity:1;stroke:none;stroke-width:0.39687499;stroke-linecap:round;stroke-linejoin:round;stroke-miterlimit:4;stroke-dasharray:none;stroke-opacity:1"
       id="path3815"
       cx="53.975002"
       cy="185.875"
       r="1.5875" />
    <path
       inkscape:connector-curvature="0"
       id="path3817"
       d="m 46.5667,203.86659 a 4.233333,4.233333 0 0 0 -2.991548,1.24178 l -0.0021,-0.002 -4.490165,4.49016 -2.9931,-2.9931 -2.993616,2.9931 -2.618961,-2.61896 -1.497066,1.49655 2.619478,2.61948 1.496549,1.49655 1.497067,-1.49655 1.496549,-1.49707 1.496551,1.49707 1.496549,1.49655 3.398759,-3.39876 a 4.233333,4.233333 0 0 0 4.085021,3.14193 4.233333,4.233333 0 0 0 2.116667,-0.57155 v 4.80488 h 2.116667 v -8.46667 a 4.233333,4.233333 0 0 0 -4.233334,-4.23333 z m 0,2.11667 a 2.1166665,2.1166665 0 0 1 2.116667,2.11666 2.1166665,2.1166665 0 0 1 -2.116667,2.11667 2.1166665,2.1166665 0 0 1 -2.116666,-2.11667 2.1166665,2.1166665 0 0 1 2.116666,-2.11666 z"
       style="fill:#63c891;fill-opacity:1;stroke:none;stroke-width:0.26458332;stroke-linecap:round;stroke-linejoin:round;stroke-miterlimit:4;stroke-dasharray:none;stroke-opacity:1" />
    <circle
       r="1.5875"
       cy="211.27501"
       cx="53.975002"
       id="circle3819"
       style="fill:#63c891;fill-opacity:1;stroke:none;stroke-width:0.39687499;stroke-linecap:round;stroke-linejoin:round;stroke-miterlimit:4;stroke-dasharray:none;stroke-opacity:1" />
    <path
       style="fill:#8b23c5;fill-opacity:1;stroke:none;stroke-width:0.26458332;stroke-linecap:round;stroke-linejoin:round;stroke-miterlimit:4;stroke-dasharray:none;stroke-opacity:1"
       d="m 46.5667,229.26659 a 4.233333,4.233333 0 0 0 -2.991548,1.24178 l -0.0021,-0.002 -4.490165,4.49016 -2.9931,-2.9931 -2.993616,2.9931 -2.618961,-2.61896 -1.497066,1.49655 2.619478,2.61948 1.496549,1.49655 1.497067,-1.49655 1.496549,-1.49707 1.496551,1.49707 1.496549,1.49655 3.398759,-3.39876 a 4.233333,4.233333 0 0 0 4.085021,3.14193 4.233333,4.233333 0 0 0 2.116667,-0.57155 v 4.80488 h 2.116667 v -8.46667 a 4.233333,4.233333 0 0 0 -4.233334,-4.23333 z m 0,2.11667 a 2.1166665,2.1166665 0 0 1 2.116667,2.11666 2.1166665,2.1166665 0 0 1 -2.116667,2.11667 2.1166665,2.1166665 0 0 1 -2.116666,-2.11667 2.1166665,2.1166665 0 0 1 2.116666,-2.11666 z"
       id="path3821"
       inkscape:connector-curvature="0" />
    <circle
       style="fill:#8b23c5;fill-opacity:1;stroke:none;stroke-width:0.39687499;stroke-linecap:round;stroke-linejoin:round;stroke-miterlimit:4;stroke-dasharray:none;stroke-opacity:1"
       id="circle3823"
       cx="53.975002"
       cy="236.67502"
       r="1.5875" />
    <path
       inkscape:connector-curvature="0"
       id="path3825"
       d="m 46.5667,254.66659 a 4.233333,4.233333 0 0 0 -2.991548,1.24178 l -0.0021,-0.002 -4.490165,4.49016 -2.9931,-2.9931 -2.993616,2.9931 -2.618961,-2.61896 -1.497066,1.49655 2.619478,2.61948 1.496549,1.49655 1.497067,-1.49655 1.496549,-1.49707 1.496551,1.49707 1.496549,1.49655 3.398759,-3.39876 a 4.233333,4.233333 0 0 0 4.085021,3.14193 4.233333,4.233333 0 0 0 2.116667,-0.57155 v 4.80488 h 2.116667 v -8.46667 a 4.233333,4.233333 0 0 0 -4.233334,-4.23333 z m 0,2.11667 a 2.1166665,2.1166665 0 0 1 2.116667,2.11666 2.1166665,2.1166665 0 0 1 -2.116667,2.11667 2.1166665,2.1166665 0 0 1 -2.116666,-2.11667 2.1166665,2.1166665 0 0 1 2.116666,-2.11666 z"
       style="fill:#008080;fill-opacity:1;stroke:none;stroke-width:0.26458332;stroke-linecap:round;stroke-linejoin:round;stroke-miterlimit:4;stroke-dasharray:none;stroke-opacity:1" />
    <circle
       r="1.5875"
       cy="262.07501"
       cx="53.975002"
       id="circle3827"
       style="fill:#008080;fill-opacity:1;stroke:none;stroke-width:0.39687499;stroke-linecap:round;stroke-linejoin:round;stroke-miterlimit:4;stroke-dasharray:none;stroke-opacity:1" />
    <path
       style="fill:#4800ff;fill-opacity:1;stroke:none;stroke-width:0.26458332;stroke-linecap:round;stroke-linejoin:round;stroke-miterlimit:4;stroke-dasharray:none;stroke-opacity:1"
       d="m 59.2667,280.06659 a 4.233333,4.233333 0 0 0 -2.991548,1.24178 l -0.0021,-0.002 -4.490165,4.49016 -2.9931,-2.9931 -2.993616,2.9931 -2.618961,-2.61896 -1.497066,1.49655 2.619478,2.61948 1.496549,1.49655 1.497067,-1.49655 1.496549,-1.49707 1.496551,1.49707 1.496549,1.49655 3.398759,-3.39876 a 4.233333,4.233333 0 0 0 4.085021,3.14193 4.233333,4.233333 0 0 0 2.116667,-0.57155 v 4.80488 h 2.116667 v -8.46667 a 4.233333,4.233333 0 0 0 -4.233334,-4.23333 z m 0,2.11667 a 2.1166665,2.1166665 0 0 1 2.116667,2.11666 2.1166665,2.1166665 0 0 1 -2.116667,2.11667 2.1166665,2.1166665 0 0 1 -2.116666,-2.11667 2.1166665,2.1166665 0 0 1 2.116666,-2.11666 z"
       id="path3829"
       inkscape:connector-curvature="0" />
    <rect
       style="fill:#4800ff;fill-opacity:1;stroke:none;stroke-width:0.26458338;stroke-linecap:round;stroke-linejoin:round;stroke-miterlimit:4;stroke-dasharray:none;stroke-opacity:1"
       id="rect3833"
       width="2.1166666"
       height="16.933332"
       x="138.31433"
       y="250.12654"
       ry="0.30710569"
       transform="rotate(15)" />
    <g
       aria-label="@"
       style="font-style:normal;font-variant:normal;font-weight:normal;font-stretch:normal;font-size:16.29674149px;line-height:1.25;font-family:Stencil;-inkscape-font-specification:Stencil;letter-spacing:0px;word-spacing:0px;fill:#4800ff;fill-opacity:1;stroke:none;stroke-width:0.40741855"
       id="text3837"
       transform="translate(12.699994,2.1166666)">
      <path
         d="m 23.362198,281.08732 0.270552,-0.45357 q 0.18302,-0.30238 0.533145,-0.30238 0.167105,0 0.310338,0.0557 0.405827,0.16711 0.405827,0.61272 0,0.13528 -0.119361,0.52519 -0.310338,1.00263 -0.509273,2.427 -0.07957,0.59681 -0.07957,1.01059 0,0.99468 0.620677,0.99468 0.588847,0 1.026504,-0.748 0.541102,-0.93897 0.541102,-2.29968 0,-1.09813 -0.541102,-2.01323 -1.297055,-2.15645 -4.082143,-2.15645 -1.949561,0 -3.381892,1.32093 -1.599436,1.47212 -1.599436,3.74793 0,2.61003 1.822243,3.97074 1.289097,0.9708 3.254574,0.9708 2.602067,0 4.27312,-1.30501 0.286466,-0.22281 0.533145,-0.22281 0.286466,0 0.509273,0.24668 0.18302,0.19098 0.18302,0.47745 0,0.31829 -0.270551,0.55701 -1.822243,1.59944 -5.228007,1.59944 -2.952193,0 -4.686905,-1.64718 -1.822243,-1.72676 -1.822243,-4.64712 0,-2.41905 1.519862,-4.19355 1.145865,-1.33684 2.824875,-1.8859 0.986716,-0.32625 2.053007,-0.32625 2.180326,0 3.859336,1.19361 1.169737,0.82757 1.782456,2.06096 0.541103,1.08221 0.541103,2.28377 0,2.0928 -1.201567,3.38985 -0.938972,1.01059 -2.148496,1.01059 -0.668421,0 -1.09812,-0.44561 -0.334211,-0.35013 -0.389912,-0.93897 -0.708208,1.51986 -2.355389,1.51986 -1.328885,0 -2.076879,-1.09812 -0.541103,-0.78778 -0.541103,-1.99731 0,-1.79837 1.026504,-3.06359 0.994674,-1.24136 2.442919,-1.24136 1.249311,0 1.798371,1.01059 z m -1.702882,0.35808 q -0.811654,0 -1.384586,0.83553 -0.58089,0.83553 -0.58089,2.07688 0,0.67638 0.262594,1.09016 0.318296,0.51723 0.88327,0.51723 0.787782,0 1.3448,-0.88327 0.557017,-0.87531 0.557017,-2.18032 0,-0.75595 -0.350125,-1.13791 -0.278509,-0.3183 -0.73208,-0.3183 z"
         style="font-style:normal;font-variant:normal;font-weight:normal;font-stretch:normal;font-family:'UD Digi Kyokasho NK-B';-inkscape-font-specification:'UD Digi Kyokasho NK-B';fill:#4800ff;fill-opacity:1;stroke-width:0.40741855"
         id="path3839"
         inkscape:connector-curvature="0" />
    </g>
    <text
       id="text905"
       y="289.28897"
       x="71.513657"
       style="font-style:normal;font-weight:normal;font-size:14.11111069px;line-height:1.25;font-family:sans-serif;letter-spacing:0px;word-spacing:0px;fill:#555595;fill-opacity:1;stroke:none;stroke-width:0.91486722"
       xml:space="preserve"><tspan
         style="font-style:normal;font-variant:normal;font-weight:normal;font-stretch:normal;font-size:14.11111069px;font-family:sans-serif;-inkscape-font-specification:sans-serif;fill:#555595;fill-opacity:1;stroke-width:0.91486722"
         y="289.28897"
         x="71.513657"
         id="tspan903"
         sodipodi:role="line">app</tspan></text>
    <path
       sodipodi:nodetypes="sscscssccccssscsscs"
       inkscape:connector-curvature="0"
       id="path4229"
       d="m 81.013574,248.11056 c -3.020734,0 -5.469519,2.44879 -5.469519,5.46952 0,0.0276 -4.13e-4,0.0546 0,0.0821 -0.979263,-0.92315 -2.29462,-1.49045 -3.746615,-1.49045 -2.243852,0 -4.174867,1.3486 -5.018279,3.28171 -0.820165,-0.4909 -1.764081,-0.7794 -2.789462,-0.7794 -3.020723,0 -5.469509,2.44878 -5.469509,5.46951 0,2.91485 2.281088,5.29241 5.155018,5.45584 v 0.0136 h 31.094183 v -0.10939 c 0.352017,0.0712 0.720927,0.10939 1.093917,0.10939 3.02072,0 5.469522,-2.44879 5.469522,-5.46951 0,-3.02073 -2.448802,-5.46952 -5.469522,-5.46952 -0.278588,0 -0.553062,0.0282 -0.820434,0.0683 0.02898,-0.22779 0.04104,-0.4617 0.04104,-0.69735 0,-3.02074 -2.448782,-5.46953 -5.469516,-5.46953 -1.640796,0 -3.113291,0.72912 -4.115812,1.87331 -0.98871,-1.41441 -2.628336,-2.33821 -4.485002,-2.33821 z"
       style="fill:none;fill-opacity:1;stroke:#008080;stroke-width:1.54750705;stroke-miterlimit:4;stroke-dasharray:none;stroke-opacity:1" />
    <text
       xml:space="preserve"
       style="font-style:normal;font-weight:normal;font-size:25.68761635px;line-height:1.25;font-family:sans-serif;letter-spacing:0px;word-spacing:0px;fill:#008080;fill-opacity:1;stroke:none;stroke-width:0.6421904"
       x="66.816795"
       y="262.72644"
       id="text4600"><tspan
         sodipodi:role="line"
         id="tspan4598"
         x="66.816795"
         y="262.72644"
         style="font-style:normal;font-variant:normal;font-weight:bold;font-stretch:normal;font-size:12.69999981px;font-family:Consolas;-inkscape-font-specification:Consolas;fill:#008080;stroke-width:0.6421904">{db}</tspan></text>
    <g
       id="g1709"
       transform="matrix(1.4234597,0,0,1.4234597,-42.524993,44.901862)">
      <text
         id="text4552"
         y="117.28283"
         x="80.312279"
         style="font-style:normal;font-weight:normal;font-size:14.70948792px;line-height:1.25;font-family:sans-serif;letter-spacing:0px;word-spacing:0px;fill:#63c891;fill-opacity:1;stroke:none;stroke-width:0.3677372"
         xml:space="preserve"><tspan
           style="font-style:normal;font-variant:normal;font-weight:bold;font-stretch:normal;font-size:7.84506035px;font-family:Consolas;-inkscape-font-specification:Consolas;fill:#63c891;fill-opacity:1;stroke-width:0.3677372"
           y="117.28283"
           x="80.312279"
           id="tspan4550"
           sodipodi:role="line">build</tspan></text>
      <text
         xml:space="preserve"
         style="font-style:normal;font-weight:normal;font-size:12.8866291px;line-height:1.25;font-family:sans-serif;letter-spacing:0px;word-spacing:0px;fill:#63c891;fill-opacity:0.33333334;stroke:none;stroke-width:0.32216576;"
         x="71.95903"
         y="117.02545"
         id="text4556"><tspan
           sodipodi:role="line"
           id="tspan4554"
           x="71.95903"
           y="117.02545"
           style="font-style:normal;font-variant:normal;font-weight:bold;font-stretch:normal;font-size:6.15135098px;font-family:'Courier New';-inkscape-font-specification:'Courier New';fill:#63c891;fill-opacity:0.33333334;stroke-width:0.32216576;">~$</tspan></text>
    </g>
    <rect
       ry="2.0959473"
       style="fill:#000000;fill-opacity:0;stroke:#4800ff;stroke-width:1.5875;stroke-linecap:round;stroke-linejoin:round;stroke-miterlimit:4;stroke-dasharray:none;stroke-opacity:1"
       id="rect4562"
       width="37.011356"
       height="15.294049"
       x="58.017059"
       y="175.05072" />
    <text
       xml:space="preserve"
       style="font-style:normal;font-weight:normal;font-size:22.21591187px;line-height:1.25;font-family:sans-serif;letter-spacing:0px;word-spacing:0px;fill:#4800ff;fill-opacity:1;stroke:none;stroke-width:0.55539781"
       x="62.596737"
       y="190.78"
       id="text4572"
       transform="scale(1.024698,0.97589726)"><tspan
         sodipodi:role="line"
         id="tspan4570"
         x="62.596737"
         y="190.78"
         style="font-style:normal;font-variant:normal;font-weight:normal;font-stretch:normal;font-size:10.12173939px;font-family:'Source Sans Pro';-inkscape-font-specification:'Source Sans Pro';fill:#4800ff;fill-opacity:1;stroke-width:0.55539781">+ APP</tspan></text>
    <text
       xml:space="preserve"
       style="font-style:normal;font-variant:normal;font-weight:normal;font-stretch:normal;font-size:10.58333302px;line-height:1.25;font-family:Stencil;-inkscape-font-specification:Stencil;letter-spacing:0px;word-spacing:0px;fill:#000000;fill-opacity:1;stroke:none;stroke-width:0.26458332"
       x="82.319016"
       y="186.08313"
       id="text2628"><tspan
         sodipodi:role="line"
         id="tspan2626"
         x="82.319016"
         y="197.98938"
         style="stroke-width:0.26458332" /></text>
    <rect
       ry="2.1166625"
       style="fill:none;fill-opacity:1;stroke:#63c891;stroke-width:0.59339565;stroke-linecap:round;stroke-linejoin:round;stroke-miterlimit:4;stroke-dasharray:none;stroke-opacity:1"
       id="rect4538"
       width="55.033333"
       height="16.933329"
       x="57.150002"
       y="199.63332" />
    <rect
       y="195.66457"
       x="0.2645942"
       height="24.870811"
       width="24.870811"
       id="rect1582"
       style="fill:none;fill-opacity:1;stroke:#63c891;stroke-width:0.52918875;stroke-linecap:round;stroke-linejoin:round;stroke-miterlimit:4;stroke-dasharray:none;stroke-opacity:1"
       ry="3.9687457" />
    <path
       style="fill:#63c891;fill-opacity:1;stroke:none;stroke-width:0.19843569;stroke-linecap:round;stroke-linejoin:round;stroke-miterlimit:4;stroke-dasharray:none;stroke-opacity:1"
       d="m 17.991745,200.69119 a 3.1749709,3.1749709 0 0 0 -2.243641,0.93133 l -0.0016,-0.001 -3.367593,3.36759 -2.244804,-2.24481 -2.2451919,2.24481 -1.9642029,-1.96421 -1.1227893,1.12241 1.9645906,1.96459 1.1224016,1.1224 1.12279,-1.1224 1.1224019,-1.12279 1.122403,1.12279 1.122401,1.1224 2.549046,-2.54905 a 3.1749709,3.1749709 0 0 0 3.063738,2.35643 3.1749709,3.1749709 0 0 0 1.587486,-0.42866 v 3.60363 h 1.587486 v -6.34995 a 3.1749709,3.1749709 0 0 0 -3.174972,-3.17496 z m 0,1.58749 a 1.5874855,1.5874855 0 0 1 1.587486,1.58748 1.5874855,1.5874855 0 0 1 -1.587486,1.58749 1.5874855,1.5874855 0 0 1 -1.587485,-1.58749 1.5874855,1.5874855 0 0 1 1.587485,-1.58748 z"
       id="path1584"
       inkscape:connector-curvature="0" />
    <g
       transform="matrix(0.78314779,0,0,0.78314779,-55.308435,124.97561)"
       id="g1604">
      <text
         xml:space="preserve"
         style="font-style:normal;font-weight:normal;font-size:14.70948792px;line-height:1.25;font-family:sans-serif;letter-spacing:0px;word-spacing:0px;fill:#63c891;fill-opacity:1;stroke:none;stroke-width:0.3677372"
         x="79.636589"
         y="117.28283"
         id="text1598"><tspan
           sodipodi:role="line"
           id="tspan1596"
           x="79.636589"
           y="117.28283"
           style="font-style:normal;font-variant:normal;font-weight:bold;font-stretch:normal;font-size:7.84506035px;font-family:Consolas;-inkscape-font-specification:Consolas;fill:#63c891;fill-opacity:1;stroke-width:0.3677372">build</tspan></text>
      <text
         id="text1602"
         y="117.02545"
         x="71.95903"
         style="font-style:normal;font-weight:normal;font-size:12.8866291px;line-height:1.25;font-family:sans-serif;letter-spacing:0px;word-spacing:0px;fill:#63c891;fill-opacity:0.33333333;stroke:none;stroke-width:0.32216576"
         xml:space="preserve"><tspan
           style="font-style:normal;font-variant:normal;font-weight:bold;font-stretch:normal;font-size:6.15135098px;font-family:'Courier New';-inkscape-font-specification:'Courier New';fill:#63c891;fill-opacity:0.33333333;stroke-width:0.32216576"
           y="117.02545"
           x="71.95903"
           id="tspan1600"
           sodipodi:role="line">~$</tspan></text>
    </g>
    <path
       style="fill:none;fill-opacity:0.17647059;stroke:#8b23c5;stroke-width:2.00008345;stroke-linecap:round;stroke-linejoin:round;stroke-miterlimit:4;stroke-dasharray:none;stroke-opacity:1"
       d="M 16 193 C 7.690009 193 1 199.69001 1 208 L 1 272 C 1 280.30999 7.690009 287 16 287 L 80 287 C 88.309991 287 95 280.30999 95 272 L 95 208 C 95 199.69001 88.309991 193 80 193 L 16 193 z M 68 211.99805 L 68 212 A 11.99989 11.99989 0 0 1 80 224 L 80 248 L 74 248 L 74 234.38086 A 11.99989 11.99989 0 0 1 68 236 A 11.99989 11.99989 0 0 1 56.419922 227.09375 L 46.787109 236.72852 L 42.544922 232.48633 L 38.302734 228.24219 L 34.060547 232.48633 L 29.816406 236.72852 L 25.574219 232.48633 L 18.148438 225.06055 L 22.392578 220.81836 L 29.816406 228.24219 L 38.302734 219.75781 L 46.787109 228.24219 L 59.513672 215.51367 L 59.519531 215.51758 A 11.99989 11.99989 0 0 1 68 211.99805 z M 68 217.99805 A 5.9999448 5.9999448 0 0 0 62 223.99805 A 5.9999448 5.9999448 0 0 0 68 229.99805 A 5.9999448 5.9999448 0 0 0 74 223.99805 A 5.9999448 5.9999448 0 0 0 68 217.99805 z "
       transform="matrix(0.26458333,0,0,0.26458333,0,169.99998)"
       id="rect1606" />
    <path
       style="fill:#8b23c5;fill-opacity:0.17647059;stroke:#8b23c5;stroke-width:1.00000001;stroke-linecap:round;stroke-linejoin:round;stroke-miterlimit:4;stroke-dasharray:none;stroke-opacity:1"
       d="M 16 193 C 7.6900091 193 1 199.69001 1 208 L 1 272 C 1 280.30999 7.6900091 287 16 287 L 80 287 C 88.309991 287 95 280.30999 95 272 L 95 208 C 95 199.69001 88.309991 193 80 193 L 16 193 z M 68 211.99805 L 68 212 A 11.99989 11.99989 0 0 1 80 224 L 80 248 L 74 248 L 74 234.38086 A 11.99989 11.99989 0 0 1 68 236 A 11.99989 11.99989 0 0 1 56.419922 227.09375 L 46.787109 236.72852 L 42.544922 232.48633 L 38.302734 228.24219 L 34.060547 232.48633 L 29.816406 236.72852 L 25.574219 232.48633 L 18.148438 225.06055 L 22.392578 220.81836 L 29.816406 228.24219 L 38.302734 219.75781 L 46.787109 228.24219 L 59.513672 215.51367 L 59.519531 215.51758 A 11.99989 11.99989 0 0 1 68 211.99805 z M 68 217.99805 A 5.9999448 5.9999448 0 0 0 62 223.99805 A 5.9999448 5.9999448 0 0 0 68 229.99805 A 5.9999448 5.9999448 0 0 0 74 223.99805 A 5.9999448 5.9999448 0 0 0 68 217.99805 z M 67.828125 254.83008 L 70.908203 254.83008 L 70.908203 258.53125 L 73.199219 258.53125 L 73.199219 260.42773 L 70.908203 260.42773 L 70.908203 267.61914 C 70.908203 268.14336 70.985959 268.55276 71.138672 268.8457 C 71.291385 269.13865 71.501947 269.36145 71.773438 269.51562 C 72.061895 269.66981 72.375481 269.77015 72.714844 269.81641 C 73.071175 269.84724 73.44567 269.86328 73.835938 269.86328 L 73.835938 271.57422 C 73.615352 271.60506 73.394414 271.62911 73.173828 271.64453 C 72.987179 271.65995 72.757818 271.66797 72.486328 271.66797 C 72.231806 271.68339 71.977178 271.68945 71.722656 271.68945 C 71.468134 271.68945 71.205084 271.68339 70.933594 271.66797 C 70.679072 271.65255 70.458134 271.62849 70.271484 271.59766 C 69.694568 271.50515 69.246223 271.28235 68.923828 270.92773 C 68.601433 270.5577 68.355228 270.15632 68.185547 269.72461 C 68.032834 269.27748 67.929811 268.84598 67.878906 268.42969 C 67.84497 268.0134 67.828125 267.6883 67.828125 267.45703 L 67.828125 260.42773 L 65.945312 260.42773 L 65.945312 258.53125 L 67.828125 258.53125 L 67.828125 254.83008 z M 40.263672 258.39258 L 40.263672 260.61133 C 39.635851 260.71926 39.118172 260.95202 38.710938 261.30664 C 38.303702 261.66126 37.981695 262.0687 37.744141 262.53125 C 37.523555 262.97838 37.363528 263.44196 37.261719 263.91992 C 37.176878 264.39789 37.132813 264.80533 37.132812 265.14453 C 37.132812 265.74584 37.210568 266.30977 37.363281 266.83398 C 37.532963 267.34279 37.78759 267.79033 38.126953 268.17578 C 38.466316 268.54582 38.880971 268.8449 39.373047 269.07617 C 39.882091 269.29203 40.492416 269.40039 41.205078 269.40039 C 41.391728 269.40039 41.621088 269.38435 41.892578 269.35352 C 42.181037 269.30726 42.477777 269.23899 42.783203 269.14648 C 43.105598 269.03856 43.421137 268.90809 43.726562 268.75391 C 44.048957 268.59972 44.328852 268.41312 44.566406 268.19727 L 45.685547 269.74805 C 45.125598 270.38019 44.473161 270.85786 43.726562 271.18164 C 42.979965 271.50542 42.028834 271.66797 40.875 271.66797 C 39.941752 271.66797 39.068377 271.4974 38.253906 271.1582 C 37.439435 270.80358 36.742932 270.32592 36.166016 269.72461 C 35.589099 269.1233 35.130378 268.42089 34.791016 267.61914 C 34.451653 266.81739 34.283203 265.95439 34.283203 265.0293 C 34.283203 264.15046 34.434808 263.31758 34.740234 262.53125 C 35.062629 261.74492 35.496083 261.05855 36.039062 260.47266 C 36.582043 259.87135 37.209213 259.38566 37.921875 259.01562 C 38.651505 258.6456 39.432233 258.43883 40.263672 258.39258 z M 83.074219 258.39258 L 83.074219 260.61133 C 82.446398 260.71926 81.92872 260.95202 81.521484 261.30664 C 81.114249 261.66126 80.79224 262.0687 80.554688 262.53125 C 80.334102 262.97838 80.174074 263.44196 80.072266 263.91992 C 79.987425 264.39789 79.943359 264.80533 79.943359 265.14453 C 79.943359 265.74584 80.021115 266.30977 80.173828 266.83398 C 80.34351 267.34279 80.598137 267.79033 80.9375 268.17578 C 81.276863 268.54582 81.691518 268.8449 82.183594 269.07617 C 82.692638 269.29203 83.302963 269.40039 84.015625 269.40039 C 84.202275 269.40039 84.431635 269.38435 84.703125 269.35352 C 84.991583 269.30726 85.288323 269.23899 85.59375 269.14648 C 85.916145 269.03856 86.231683 268.90809 86.537109 268.75391 C 86.859504 268.59972 87.139399 268.41312 87.376953 268.19727 L 88.496094 269.74805 C 87.936145 270.38019 87.283708 270.85786 86.537109 271.18164 C 85.790511 271.50542 84.83938 271.66797 83.685547 271.66797 C 82.752299 271.66797 81.878924 271.4974 81.064453 271.1582 C 80.249982 270.80358 79.553479 270.32592 78.976562 269.72461 C 78.399647 269.1233 77.942878 268.42089 77.603516 267.61914 C 77.264153 266.81739 77.09375 265.95439 77.09375 265.0293 C 77.09375 264.15046 77.245355 263.31758 77.550781 262.53125 C 77.873176 261.74492 78.306629 261.05855 78.849609 260.47266 C 79.39259 259.87135 80.01976 259.38566 80.732422 259.01562 C 81.462052 258.6456 82.24278 258.43883 83.074219 258.39258 z M 41.308594 258.41602 C 42.224873 258.49311 43.047714 258.7159 43.777344 259.08594 C 44.523942 259.45597 45.159534 259.93364 45.685547 260.51953 C 46.211559 261.10542 46.609369 261.77576 46.880859 262.53125 C 47.169318 263.28674 47.314453 264.07347 47.314453 264.89062 C 47.314453 265.26066 47.289186 265.62996 47.238281 266 L 38.507812 266 L 38.507812 263.96484 L 44.386719 263.96484 C 44.386719 263.56397 44.310916 263.17863 44.158203 262.80859 C 44.022458 262.43856 43.809943 262.09938 43.521484 261.79102 C 43.249994 261.46723 42.927986 261.19828 42.554688 260.98242 C 42.181388 260.76657 41.766734 260.6361 41.308594 260.58984 L 41.308594 258.41602 z M 84.119141 258.41602 C 85.03542 258.49311 85.858261 258.7159 86.587891 259.08594 C 87.334489 259.45597 87.970081 259.93364 88.496094 260.51953 C 89.022106 261.10542 89.419916 261.77576 89.691406 262.53125 C 89.979865 263.28674 90.125 264.07347 90.125 264.89062 C 90.125 265.26066 90.099733 265.62996 90.048828 266 L 81.318359 266 L 81.318359 263.96484 L 87.197266 263.96484 C 87.197266 263.56397 87.121463 263.17863 86.96875 262.80859 C 86.833005 262.43856 86.62049 262.09938 86.332031 261.79102 C 86.060541 261.46723 85.738533 261.19828 85.365234 260.98242 C 84.991935 260.76657 84.57728 260.6361 84.119141 260.58984 L 84.119141 258.41602 z M 31.355469 258.4375 L 31.355469 261.35156 C 30.880361 261.22822 30.303726 261.15995 29.625 261.14453 C 29.251701 261.14453 28.870736 261.17466 28.480469 261.23633 C 28.10717 261.28258 27.749519 261.36082 27.410156 261.46875 L 27.410156 259.10938 C 27.83436 258.89352 28.343615 258.73097 28.9375 258.62305 C 29.531385 258.4997 30.33738 258.4375 31.355469 258.4375 z M 57.164062 258.4375 C 57.673107 258.4375 58.165517 258.48366 58.640625 258.57617 C 59.132701 258.66868 59.574577 258.82321 59.964844 259.03906 C 60.372079 259.25492 60.719355 259.54793 61.007812 259.91797 C 61.313239 260.27259 61.525754 260.72013 61.644531 261.25977 C 61.763308 261.7994 61.839111 262.34729 61.873047 262.90234 C 61.923951 263.44198 61.949219 263.98185 61.949219 264.52148 L 61.949219 267.52734 L 61.949219 267.71289 C 61.949219 267.83624 61.957641 268.02089 61.974609 268.26758 C 61.991578 268.49885 62.025267 268.73768 62.076172 268.98438 C 62.127076 269.23106 62.204832 269.45386 62.306641 269.6543 C 62.425418 269.85473 62.577022 269.98716 62.763672 270.04883 L 61.949219 271.59766 C 61.728633 271.59766 61.49085 271.55149 61.236328 271.45898 C 60.998774 271.36648 60.76099 271.23601 60.523438 271.06641 C 60.302852 270.89681 60.109135 270.71216 59.939453 270.51172 C 59.78674 270.29586 59.666872 270.0631 59.582031 269.81641 C 59.41235 270.20186 59.073497 270.54906 58.564453 270.85742 C 58.072377 271.15037 57.521009 271.3671 56.910156 271.50586 L 56.910156 269.74805 C 57.317392 269.67096 57.681512 269.52445 58.003906 269.30859 C 58.343269 269.07732 58.631587 268.80641 58.869141 268.49805 L 58.869141 263.61914 C 58.869141 262.86365 58.827027 262.26158 58.742188 261.81445 C 58.657347 261.36733 58.514165 261.04419 58.310547 260.84375 C 58.106929 260.6279 57.852302 260.49743 57.546875 260.45117 C 57.258417 260.3895 56.909189 260.35742 56.501953 260.35742 C 56.128654 260.35742 55.772957 260.40358 55.433594 260.49609 C 55.111199 260.57318 54.806037 260.67353 54.517578 260.79688 C 54.246088 260.90479 53.999883 261.0292 53.779297 261.16797 C 53.575679 261.30673 53.422121 261.41314 53.320312 261.49023 L 52.175781 259.89453 C 52.345463 259.72493 52.60009 259.55632 52.939453 259.38672 C 53.278816 259.2017 53.668203 259.03915 54.109375 258.90039 C 54.550547 258.76163 55.026112 258.65326 55.535156 258.57617 C 56.061169 258.48366 56.604115 258.4375 57.164062 258.4375 z M 14.023438 258.48438 L 14.023438 260.72852 C 13.17503 260.89812 12.495372 261.37578 11.986328 262.16211 C 11.477284 262.93302 11.222656 263.87231 11.222656 264.98242 C 11.222656 265.5529 11.283567 266.09276 11.402344 266.60156 C 11.538089 267.09495 11.723384 267.53447 11.960938 267.91992 C 12.19849 268.30538 12.486809 268.63047 12.826172 268.89258 C 13.182503 269.15469 13.582266 269.31528 14.023438 269.37695 L 14.023438 271.66797 C 13.09019 271.62171 12.250504 271.42102 11.503906 271.06641 C 10.757308 270.69637 10.119762 270.2187 9.59375 269.63281 C 9.0677376 269.0315 8.6615053 268.33711 8.3730469 267.55078 C 8.1015566 266.76445 7.9648438 265.93157 7.9648438 265.05273 C 7.9648437 264.1739 8.1015566 263.34904 8.3730469 262.57812 C 8.6615053 261.80722 9.0761601 261.12886 9.6191406 260.54297 C 10.162121 259.95708 10.799667 259.48743 11.529297 259.13281 C 12.275895 258.76278 13.107158 258.54604 14.023438 258.48438 z M 15.066406 258.48438 C 15.999654 258.53062 16.797227 258.71528 17.458984 259.03906 C 18.13771 259.34743 18.748035 259.80299 19.291016 260.4043 L 17.917969 261.9082 C 17.663447 261.63068 17.305796 261.3758 16.847656 261.14453 C 16.406485 260.89784 15.813004 260.75133 15.066406 260.70508 L 15.066406 258.48438 z M 23.287109 258.53125 L 26.037109 258.53125 L 26.367188 259.87305 L 26.367188 266.94922 L 26.367188 266.99609 L 26.367188 271.57422 L 23.287109 271.57422 L 23.287109 258.53125 z M 56.707031 263.61914 L 57.826172 263.61914 L 57.826172 265.26172 L 57.265625 265.26172 C 56.926262 265.26172 56.570565 265.29184 56.197266 265.35352 C 55.823967 265.41519 55.476692 265.53157 55.154297 265.70117 C 54.831902 265.87077 54.56043 266.11567 54.339844 266.43945 C 54.136226 266.74782 54.033203 267.1492 54.033203 267.64258 C 54.033203 268.3364 54.186761 268.85416 54.492188 269.19336 C 54.814581 269.53256 55.273303 269.7313 55.867188 269.79297 L 55.867188 271.66797 C 55.799315 271.68339 55.68787 271.68945 55.535156 271.68945 C 54.958239 271.68945 54.398449 271.62119 53.855469 271.48242 C 53.329456 271.34366 52.862314 271.11891 52.455078 270.81055 C 52.047843 270.50218 51.725835 270.09474 51.488281 269.58594 C 51.267695 269.07714 51.158203 268.45296 51.158203 267.71289 C 51.158203 267.00365 51.31823 266.39357 51.640625 265.88477 C 51.979988 265.36055 52.405019 264.93706 52.914062 264.61328 C 53.440075 264.27408 54.033556 264.02723 54.695312 263.87305 C 55.35707 263.70345 56.028306 263.61914 56.707031 263.61914 z M 17.867188 268.24414 L 19.011719 269.74805 C 18.485706 270.34936 17.917494 270.81098 17.306641 271.13477 C 16.695788 271.44313 15.94875 271.62171 15.066406 271.66797 L 15.066406 269.37695 C 15.677259 269.31528 16.194937 269.1848 16.619141 268.98438 C 17.060312 268.76852 17.47692 268.52167 17.867188 268.24414 z "
       id="rect1614"
       transform="matrix(0.26458333,0,0,0.26458333,0,169.99998)" />
    <path
       inkscape:connector-curvature="0"
       id="path1622"
       d="m 17.462564,175.29118 a 3.1749708,3.1749708 0 0 0 -2.243641,0.93133 l -0.0016,-0.001 -3.367593,3.36759 -2.2448047,-2.24481 -2.245191,2.24481 -1.964203,-1.96421 -1.122789,1.12241 1.96459,1.96459 1.122402,1.1224 1.12279,-1.1224 1.122401,-1.12279 1.1224027,1.12279 1.122402,1.1224 2.549046,-2.54905 a 3.1749708,3.1749708 0 0 0 3.063738,2.35643 3.1749708,3.1749708 0 0 0 1.587486,-0.42866 v 3.60363 h 1.587485 v -6.34995 a 3.1749708,3.1749708 0 0 0 -3.174971,-3.17496 z m 0,1.58749 a 1.5874854,1.5874854 0 0 1 1.587485,1.58748 1.5874854,1.5874854 0 0 1 -1.587485,1.58749 1.5874854,1.5874854 0 0 1 -1.587486,-1.58749 1.5874854,1.5874854 0 0 1 1.587486,-1.58748 z"
       style="fill:#4800ff;fill-opacity:1;stroke:none;stroke-width:0.19843568;stroke-linecap:round;stroke-linejoin:round;stroke-miterlimit:4;stroke-dasharray:none;stroke-opacity:1" />
    <rect
       y="184.81665"
       x="2.1166668"
       height="8.4666615"
       width="21.166666"
       id="rect1624"
       style="fill:#000000;fill-opacity:0;stroke:#4800ff;stroke-width:0.79375;stroke-linecap:round;stroke-linejoin:round;stroke-miterlimit:4;stroke-dasharray:none;stroke-opacity:1"
       ry="2.0959473" />
    <text
       id="text1628"
       y="203.44693"
       x="3.6153274"
       style="font-style:normal;font-weight:normal;font-size:14.97654247px;line-height:1.25;font-family:sans-serif;letter-spacing:0px;word-spacing:0px;fill:#4800ff;fill-opacity:1;stroke:none;stroke-width:0.37441361"
       xml:space="preserve"
       transform="scale(1.0637204,0.94009666)"><tspan
         style="font-style:normal;font-variant:normal;font-weight:normal;font-stretch:normal;font-size:6.82342815px;font-family:'Source Sans Pro';-inkscape-font-specification:'Source Sans Pro';fill:#4800ff;fill-opacity:1;stroke-width:0.37441361"
         y="203.44693"
         x="3.6153274"
         id="tspan1626"
         sodipodi:role="line">+ APP</tspan></text>
    <path
       style="fill:#008080;fill-opacity:1;stroke:none;stroke-width:0.19843568;stroke-linecap:round;stroke-linejoin:round;stroke-miterlimit:4;stroke-dasharray:none;stroke-opacity:1"
       d="m 17.991746,251.49219 a 3.1749708,3.1749708 0 0 0 -2.243641,0.93133 l -0.0016,-0.002 -3.367593,3.36759 -2.244805,-2.24481 -2.2451907,2.24481 -1.964203,-1.96421 -1.122789,1.12241 1.96459,1.96459 1.122402,1.1224 1.12279,-1.1224 1.1224007,-1.12279 1.122403,1.12279 1.122402,1.1224 2.549046,-2.54905 a 3.1749708,3.1749708 0 0 0 3.063738,2.35643 3.1749708,3.1749708 0 0 0 1.587486,-0.42866 v 3.60363 h 1.587485 v -6.34995 a 3.1749708,3.1749708 0 0 0 -3.174971,-3.17496 z m 0,1.58749 a 1.5874854,1.5874854 0 0 1 1.587485,1.58748 1.5874854,1.5874854 0 0 1 -1.587485,1.58749 1.5874854,1.5874854 0 0 1 -1.587486,-1.58749 1.5874854,1.5874854 0 0 1 1.587486,-1.58748 z"
       id="path1630"
       inkscape:connector-curvature="0" />
    <path
       style="fill:none;fill-opacity:1;stroke:#008080;stroke-width:0.78524226;stroke-miterlimit:4;stroke-dasharray:none;stroke-opacity:1"
       d="m 13.518696,260.29824 c -1.532793,0 -2.775365,1.24258 -2.775365,2.77536 0,0.0148 -2.1e-4,0.0276 0,0.0417 -0.496902,-0.46842 -1.1643457,-0.75627 -1.9011233,-0.75627 -1.1385844,0 -2.1184278,0.6843 -2.5463949,1.66521 -0.4161717,-0.2491 -0.8951373,-0.39548 -1.4154394,-0.39548 -1.5327882,0 -2.7753608,1.24257 -2.7753608,2.77536 0,1.47906 1.1574787,2.68548 2.6157808,2.76841 v 0.006 H 20.498728 v -0.0555 c 0.178621,0.0362 0.365815,0.0555 0.555079,0.0555 1.532787,0 2.775368,-1.24258 2.775368,-2.77536 0,-1.53279 -1.242581,-2.77537 -2.775368,-2.77537 -0.141359,0 -0.280637,0.0148 -0.416307,0.0347 0.01472,-0.1156 0.02083,-0.23428 0.02083,-0.35386 0,-1.53279 -1.242571,-2.77537 -2.775364,-2.77537 -0.832579,0 -1.579759,0.36997 -2.088462,0.95058 -0.501696,-0.71772 -1.33368,-1.18649 -2.275797,-1.18649 z"
       id="path1632"
       inkscape:connector-curvature="0"
       sodipodi:nodetypes="sscscssccccssscsscs" />
    <text
       id="text1636"
       y="267.71472"
       x="6.3149123"
       style="font-style:normal;font-weight:normal;font-size:13.03451347px;line-height:1.25;font-family:sans-serif;letter-spacing:0px;word-spacing:0px;fill:#008080;fill-opacity:1;stroke:none;stroke-width:0.32586285"
       xml:space="preserve"><tspan
         style="font-style:normal;font-variant:normal;font-weight:bold;font-stretch:normal;font-size:6.44428492px;font-family:Consolas;-inkscape-font-specification:Consolas;fill:#008080;stroke-width:0.32586285"
         y="267.71472"
         x="6.3149123"
         id="tspan1634"
         sodipodi:role="line">{db}</tspan></text>
  </g>
</svg>
