<svg xmlns="http://www.w3.org/2000/svg" width="96" height="96" viewBox="0 0 25.4 25.4"><g transform="translate(117.777 -22.74)"><path d="M-100.315 28.032a3.175 3.175 0 0 0-2.243.931l-.002-.001-3.368 3.368-2.245-2.245-2.245 2.245-1.964-1.965-1.123 1.123 1.965 1.964 1.122 1.123 1.123-1.123 1.122-1.122 1.123 1.122 1.122 1.123 2.549-2.55a3.175 3.175 0 0 0 3.064 2.357 3.175 3.175 0 0 0 1.587-.428v3.603h1.588v-6.35a3.175 3.175 0 0 0-3.175-3.175zm0 1.587a1.587 1.587 0 0 1 1.588 1.588 1.587 1.587 0 0 1-1.588 1.587 1.587 1.587 0 0 1-1.587-1.587 1.587 1.587 0 0 1 1.587-1.588z" style="fill:#4800ff;fill-opacity:1;stroke:none;stroke-width:.19843568;stroke-linecap:round;stroke-linejoin:round;stroke-miterlimit:4;stroke-dasharray:none;stroke-opacity:1"/><rect y="37.557" x="-115.661" height="8.467" width="21.167" style="fill:#000;fill-opacity:0;stroke:#4800ff;stroke-width:.79374999;stroke-linecap:round;stroke-linejoin:round;stroke-miterlimit:4;stroke-dasharray:none;stroke-opacity:1" ry="2.096"/><path style="font-style:normal;font-variant:normal;font-weight:400;font-stretch:normal;font-size:6.82342815px;line-height:1.25;font-family:'Source Sans Pro';-inkscape-font-specification:'Source Sans Pro';letter-spacing:0;word-spacing:0;fill:#4800ff;fill-opacity:1;stroke:none;stroke-width:.37441361" d="M-112.364 43.333v-1.25h-1.32v-.398h1.32v-1.251h.472v1.25h1.32v.398h-1.32v1.251zm4.952-1.687-.225.642h1.43l-.225-.642q-.13-.353-.246-.7-.117-.352-.233-.718h-.029q-.109.366-.225.719-.116.346-.247.7zM-108.863 44l1.611-4.208h.682l1.612 4.208h-.646l-.45-1.283h-1.735l-.457 1.283zm4.586 0v-4.208h1.358q.399 0 .726.064.333.065.566.212.232.141.363.379.13.237.13.583 0 .334-.13.578-.124.243-.356.404-.232.16-.559.243-.32.077-.711.077h-.784V44zm.603-2.104h.711q.624 0 .922-.205.305-.212.305-.66 0-.456-.32-.63-.312-.179-.936-.179h-.682zm3.509 2.104v-4.208h1.357q.399 0 .726.064.334.065.566.212.232.141.363.379.13.237.13.583 0 .334-.13.578-.124.243-.356.404-.232.16-.559.243-.32.077-.711.077h-.784V44zm.602-2.104h.711q.624 0 .922-.205.305-.212.305-.66 0-.456-.32-.63-.312-.179-.936-.179h-.682z"/></g></svg>