<svg xmlns="http://www.w3.org/2000/svg" width="96" height="96" viewBox="0 0 25.4 25.4"><g transform="translate(116.965 -22.495)"><rect y="22.759" x="-116.7" height="24.871" width="24.871" style="fill:none;fill-opacity:1;stroke:#63c891;stroke-width:.52918875;stroke-linecap:round;stroke-linejoin:round;stroke-miterlimit:4;stroke-dasharray:none;stroke-opacity:1" ry="3.969"/><path style="fill:#63c891;fill-opacity:1;stroke:none;stroke-width:.19843571;stroke-linecap:round;stroke-linejoin:round;stroke-miterlimit:4;stroke-dasharray:none;stroke-opacity:1" d="M-98.973 27.786a3.175 3.175 0 0 0-2.244.931h-.002l-3.367 3.367-2.245-2.245-2.245 2.245-1.964-1.964-1.123 1.122 1.964 1.965 1.123 1.122 1.123-1.122 1.122-1.123 1.122 1.123 1.123 1.122 2.549-2.549a3.175 3.175 0 0 0 3.064 2.356 3.175 3.175 0 0 0 1.587-.428v3.603h1.588v-6.35a3.175 3.175 0 0 0-3.175-3.174zm0 1.587a1.587 1.587 0 0 1 1.587 1.588 1.587 1.587 0 0 1-1.587 1.587 1.587 1.587 0 0 1-1.587-1.587 1.587 1.587 0 0 1 1.587-1.588z"/><path style="font-style:normal;font-variant:normal;font-weight:700;font-stretch:normal;font-size:6.14384174px;line-height:1.25;font-family:Consolas;-inkscape-font-specification:Consolas;letter-spacing:0;word-spacing:0;fill:#63c891;fill-opacity:1;stroke:none;stroke-width:.2879926" d="M-106.747 42.342q0 .42-.12.726-.117.306-.33.51-.21.201-.498.3-.288.096-.627.096-.333 0-.621-.05-.285-.049-.546-.133v-4.11h.732v.996l-.03.6q.165-.213.384-.342.222-.129.531-.129.27 0 .48.108.21.108.351.31.144.197.219.482.075.282.075.636zm-.768.03q0-.252-.036-.429t-.105-.29q-.066-.115-.165-.166-.096-.054-.222-.054-.186 0-.357.15-.168.15-.357.408v1.332q.087.033.213.054.129.021.261.021.174 0 .315-.072.144-.072.243-.204.102-.132.156-.32.054-.193.054-.43zm2.135-1.5v1.986q0 .25.094.378.093.126.282.126.183 0 .35-.15.172-.153.36-.41v-1.93h.733v3.048h-.633l-.018-.45q-.096.117-.195.213-.1.096-.216.165-.114.066-.252.102-.135.04-.3.04-.234 0-.411-.076-.174-.078-.291-.219-.117-.14-.177-.336-.057-.198-.057-.44v-2.047zm4.453-.834q0 .1-.036.186-.036.087-.102.153-.063.063-.15.102-.087.036-.19.036-.101 0-.191-.036-.087-.039-.153-.102-.063-.066-.1-.153-.035-.087-.035-.186t.036-.186q.036-.087.099-.153.066-.066.153-.102.09-.039.192-.039.102 0 .189.04.087.035.15.101.066.066.102.153.036.087.036.186zm-.81 1.404h-.861v-.57h1.61v2.478h.88v.57h-2.595v-.57h.966zm3.384-1.191h-.861v-.57h1.61v3.67h.88v.57h-2.595v-.57h.966zm4.317 3.669-.018-.45q-.096.117-.198.213-.102.096-.22.165-.116.066-.251.102-.132.04-.294.04-.27 0-.48-.109-.21-.108-.354-.306-.141-.2-.216-.486-.075-.285-.075-.636 0-.42.117-.726.12-.309.33-.51.21-.204.498-.3.288-.099.627-.099.114 0 .228.015.117.015.207.04V39.68h.732v4.24zm-1.338-1.5q0 .252.033.432.036.177.102.291.069.114.168.168.099.051.225.051.186 0 .354-.15.168-.15.357-.41v-1.333q-.087-.033-.216-.054-.126-.02-.255-.02-.177 0-.318.071-.141.072-.243.204-.1.132-.153.324-.054.19-.054.426z"/><path style="font-style:normal;font-variant:normal;font-weight:700;font-stretch:normal;font-size:4.81741667px;line-height:1.25;font-family:'Courier New';-inkscape-font-specification:'Courier New';letter-spacing:0;word-spacing:0;fill:#63c891;fill-opacity:.33333333;stroke:none;stroke-width:.25230339" d="M-113.564 42.004q.103 0 .174.07.07.071.07.17 0 .1-.105.226-.16.185-.268.263-.16.118-.341.118-.137 0-.27-.069-.135-.068-.337-.258-.2-.193-.257-.193-.028 0-.054.019-.052.033-.17.162-.114.13-.161.158-.047.025-.095.025-.098 0-.174-.073-.073-.072-.073-.169 0-.143.245-.374.245-.23.48-.23.13 0 .266.068.136.066.36.287.115.115.169.146.035.018.064.018.032 0 .058-.018.06-.04.188-.193.083-.099.128-.125.047-.028.103-.028zm2.221-1.181q.167.021.326.094.038-.021.071-.03.035-.012.068-.012.108 0 .174.075.069.073.069.247v.155q0 .174-.069.25-.066.073-.171.073-.097 0-.165-.064-.066-.063-.078-.186-.169-.134-.423-.134-.266 0-.39.097-.123.094-.123.209 0 .09.075.16.076.07.316.12l.32.068q.404.082.58.247.231.21.231.553 0 .3-.212.536-.209.233-.6.308V44q0 .174-.068.247-.065.075-.174.075-.106 0-.174-.075-.066-.073-.066-.247v-.41q-.188-.04-.376-.124-.101.084-.188.084-.115 0-.184-.073-.066-.073-.066-.247v-.303q0-.174.066-.247.069-.075.177-.075.087 0 .146.047.058.047.084.146.026.096.073.145.07.076.214.127.146.05.299.05.268 0 .447-.139.12-.092.12-.238 0-.12-.08-.197-.08-.075-.336-.127l-.363-.073q-.383-.075-.562-.275-.179-.2-.179-.48 0-.278.193-.494.193-.217.515-.273v-.132q0-.171.066-.244.068-.076.177-.076.106 0 .171.076.069.073.069.244z"/></g></svg>