<svg xmlns="http://www.w3.org/2000/svg" width="96" height="96" viewBox="0 0 25.4 25.4"><path style="fill:none;fill-opacity:.17647059;stroke:#8b23c5;stroke-width:.52918875;stroke-linecap:round;stroke-linejoin:round;stroke-miterlimit:4;stroke-dasharray:none;stroke-opacity:1" d="M-109.796 29.646a3.96 3.96 0 0 0-3.969 3.969v16.933a3.96 3.96 0 0 0 3.969 3.97h16.933a3.96 3.96 0 0 0 3.969-3.97V33.615a3.96 3.96 0 0 0-3.969-3.969zm13.758 5.027v0a3.175 3.175 0 0 1 3.175 3.175v6.35h-1.587v-3.603a3.175 3.175 0 0 1-1.588.428 3.175 3.175 0 0 1-3.064-2.356l-2.548 2.55-1.123-1.123-1.122-1.123-1.123 1.123-1.123 1.122-1.122-1.122-1.965-1.965 1.123-1.122 1.964 1.964 2.246-2.245 2.245 2.245 3.367-3.368.002.001a3.175 3.175 0 0 1 2.244-.931zm0 1.587a1.587 1.587 0 0 0-1.587 1.588 1.587 1.587 0 0 0 1.587 1.587 1.587 1.587 0 0 0 1.588-1.587 1.587 1.587 0 0 0-1.588-1.588z" transform="translate(114.03 -29.382)"/><path style="fill:#8b23c5;fill-opacity:.17647059;stroke:#8b23c5;stroke-width:.26458332;stroke-linecap:round;stroke-linejoin:round;stroke-miterlimit:4;stroke-dasharray:none;stroke-opacity:1" d="M-109.796 29.646a3.96 3.96 0 0 0-3.969 3.969v16.933a3.96 3.96 0 0 0 3.969 3.97h16.933a3.96 3.96 0 0 0 3.969-3.97V33.615a3.96 3.96 0 0 0-3.969-3.969zm13.758 5.027v0a3.175 3.175 0 0 1 3.175 3.175v6.35h-1.587v-3.603a3.175 3.175 0 0 1-1.588.428 3.175 3.175 0 0 1-3.064-2.356l-2.548 2.55-1.123-1.123-1.122-1.123-1.123 1.123-1.123 1.122-1.122-1.122-1.965-1.965 1.123-1.122 1.964 1.964 2.246-2.245 2.245 2.245 3.367-3.368.002.001a3.175 3.175 0 0 1 2.244-.931zm0 1.587a1.587 1.587 0 0 0-1.587 1.588 1.587 1.587 0 0 0 1.587 1.587 1.587 1.587 0 0 0 1.588-1.587 1.587 1.587 0 0 0-1.588-1.588zm-.045 9.745h.815v.98h.606v.502h-.606v1.902c0 .139.02.247.06.325a.431.431 0 0 0 .169.177c.076.04.159.067.249.08a3.5 3.5 0 0 0 .296.012v.453a2.582 2.582 0 0 1-.357.024 3.324 3.324 0 0 1-.586-.018.59.59 0 0 1-.356-.177 1.09 1.09 0 0 1-.196-.319 1.702 1.702 0 0 1-.08-.342 3.37 3.37 0 0 1-.014-.258v-1.86h-.498v-.501h.498zm-7.293.943v.587a.824.824 0 0 0-.411.184 1.083 1.083 0 0 0-.256.324 1.563 1.563 0 0 0-.162.692c0 .159.02.308.061.447.045.134.113.253.202.355.09.097.2.177.33.238.135.057.296.086.485.086.05 0 .11-.005.182-.013.076-.012.154-.03.235-.055a1.71 1.71 0 0 0 .25-.104c.085-.04.16-.09.222-.147l.296.41c-.148.168-.32.294-.518.38-.198.085-.45.128-.755.128-.247 0-.478-.045-.693-.134a1.69 1.69 0 0 1-.553-.38 1.823 1.823 0 0 1-.363-.557 1.739 1.739 0 0 1-.135-.685c0-.233.04-.453.121-.66a1.81 1.81 0 0 1 .842-.931c.193-.098.4-.153.62-.165zm11.327 0v.587a.824.824 0 0 0-.411.184 1.083 1.083 0 0 0-.256.324 1.564 1.564 0 0 0-.162.692c0 .159.02.308.061.447.045.134.112.253.202.355.09.097.2.177.33.238.135.057.296.086.485.086.05 0 .11-.005.182-.013.076-.012.154-.03.235-.055.086-.028.169-.063.25-.104.085-.04.16-.09.222-.147l.296.41c-.148.168-.32.294-.518.38-.198.085-.45.128-.755.128-.247 0-.478-.045-.693-.134a1.69 1.69 0 0 1-.553-.38 1.822 1.822 0 0 1-.363-.557 1.74 1.74 0 0 1-.135-.685c0-.233.04-.453.121-.66.085-.209.2-.39.344-.546.143-.159.31-.287.498-.385.193-.098.4-.153.62-.165zm-11.05.006c.242.02.46.08.652.177.198.098.366.225.505.38.14.155.245.332.316.532.077.2.115.408.115.624 0 .098-.007.196-.02.294h-2.31v-.539h1.555a.792.792 0 0 0-.06-.306.79.79 0 0 0-.169-.269.953.953 0 0 0-.255-.214.813.813 0 0 0-.33-.104zm11.326 0c.242.02.46.08.653.177.198.098.366.225.505.38.14.155.245.332.316.532.077.2.115.408.115.624 0 .098-.007.196-.02.294h-2.31v-.539h1.555a.794.794 0 0 0-.06-.306.791.791 0 0 0-.168-.269.953.953 0 0 0-.256-.214.813.813 0 0 0-.33-.104zm-13.96.006v.771a1.94 1.94 0 0 0-.76-.03 1.57 1.57 0 0 0-.284.061v-.624c.112-.057.247-.1.404-.129.157-.033.37-.05.64-.05zm6.828 0c.135 0 .265.012.39.037.131.024.248.065.351.122.108.057.2.135.276.233a.795.795 0 0 1 .169.355c.031.142.051.287.06.434.014.143.02.286.02.429v.845a2.034 2.034 0 0 0 .034.335.702.702 0 0 0 .061.178.222.222 0 0 0 .121.104l-.215.41a.554.554 0 0 1-.189-.037.866.866 0 0 1-.343-.25.73.73 0 0 1-.095-.184.64.64 0 0 1-.269.275c-.13.078-.276.135-.438.172v-.465a.772.772 0 0 0 .29-.117.99.99 0 0 0 .229-.214V48.33c0-.2-.011-.36-.034-.478a.48.48 0 0 0-.114-.256.34.34 0 0 0-.202-.104 1.342 1.342 0 0 0-.56.012 1.506 1.506 0 0 0-.558.263l-.303-.423a.784.784 0 0 1 .202-.134c.09-.049.193-.092.31-.129a2.51 2.51 0 0 1 .377-.085c.139-.025.282-.037.43-.037zm-11.414.012v.594a.816.816 0 0 0-.54.38 1.324 1.324 0 0 0-.201.746c0 .15.016.293.047.428.036.13.085.247.148.349.063.102.14.188.23.257.093.07.2.112.316.128v.607a1.74 1.74 0 0 1-.667-.16 1.664 1.664 0 0 1-.505-.379 1.736 1.736 0 0 1-.323-.55 2.012 2.012 0 0 1-.108-.662c0-.232.036-.45.108-.655.076-.203.186-.383.33-.538a1.733 1.733 0 0 1 1.165-.545zm.276 0c.247.013.458.061.633.147.18.082.34.202.485.361l-.364.398a1.11 1.11 0 0 0-.754-.318zm2.175.013h.728l.087.355v3.096h-.815zm8.842 1.346h.296v.435h-.148c-.09 0-.184.008-.283.024a.905.905 0 0 0-.276.092.593.593 0 0 0-.215.195.568.568 0 0 0-.081.318c0 .184.04.321.121.41.086.09.207.143.364.16v.496a.45.45 0 0 1-.088.005c-.152 0-.3-.018-.444-.055a1.051 1.051 0 0 1-.37-.177.847.847 0 0 1-.257-.324 1.245 1.245 0 0 1-.087-.496.88.88 0 0 1 .128-.484c.09-.138.202-.25.337-.336a1.48 1.48 0 0 1 .471-.196c.175-.045.353-.067.532-.067zm-10.276 1.224.303.398c-.14.159-.29.28-.451.366a1.48 1.48 0 0 1-.593.142v-.607c.161-.016.298-.05.41-.104.117-.057.228-.122.33-.195z" transform="translate(114.03 -29.382)"/></svg>