<svg xmlns="http://www.w3.org/2000/svg" width="96" height="96" viewBox="0 0 25.4 25.4"><path style="fill:teal;fill-opacity:1;stroke:none;stroke-width:.19843568;stroke-linecap:round;stroke-linejoin:round;stroke-miterlimit:4;stroke-dasharray:none;stroke-opacity:1" d="M-96.644 32.674a3.175 3.175 0 0 0-2.243.931l-.002-.002-3.368 3.368-2.244-2.245-2.246 2.245-1.964-1.964-1.123 1.122 1.965 1.965 1.122 1.122 1.123-1.122 1.123-1.123 1.122 1.123 1.122 1.122 2.55-2.549a3.175 3.175 0 0 0 3.063 2.357 3.175 3.175 0 0 0 1.588-.43V42.2h1.587v-6.35a3.175 3.175 0 0 0-3.175-3.175zm0 1.588a1.587 1.587 0 0 1 1.588 1.587 1.587 1.587 0 0 1-1.588 1.588 1.587 1.587 0 0 1-1.587-1.588 1.587 1.587 0 0 1 1.587-1.587z" transform="translate(114.636 -27.382)"/><path style="fill:none;fill-opacity:1;stroke:teal;stroke-width:.78524226;stroke-miterlimit:4;stroke-dasharray:none;stroke-opacity:1" d="M-101.117 41.48a2.775 2.775 0 0 0-2.775 2.775v.042a2.777 2.777 0 0 0-4.448.909 2.737 2.737 0 0 0-1.415-.395 2.775 2.775 0 0 0-.16 5.543v.006h15.778v-.055a2.775 2.775 0 1 0 .555-5.495c-.141 0-.28.014-.416.034.015-.115.02-.234.02-.353a2.775 2.775 0 0 0-4.863-1.825 2.77 2.77 0 0 0-2.276-1.187z" transform="translate(114.636 -27.382)"/><path style="font-style:normal;font-variant:normal;font-weight:700;font-stretch:normal;font-size:6.44428492px;line-height:1.25;font-family:Consolas;-inkscape-font-specification:Consolas;letter-spacing:0;word-spacing:0;fill:teal;fill-opacity:1;stroke:none;stroke-width:.32586285" d="M-105.725 50.146q-.651 0-.972-.315-.32-.311-.32-.991v-.8q0-.323-.146-.487-.144-.164-.481-.164h-.198v-.594h.198q.17 0 .29-.035.119-.038.194-.113.076-.076.107-.192.035-.12.035-.283v-.554q0-.324.072-.57.076-.245.233-.409.158-.163.4-.245.245-.085.588-.085h.265v.591h-.199q-.15 0-.273.038-.12.035-.208.117-.088.081-.135.217-.048.132-.048.33v.55q0 .237-.04.404-.038.166-.12.28-.082.11-.208.173-.126.06-.295.085.336.037.5.264.163.223.163.689v.8q0 .204.048.34.047.134.135.216.088.082.208.117.122.034.273.034h.199v.592zm3.402-1.249-.02-.472q-.1.122-.207.223-.107.1-.23.173-.122.07-.264.107-.138.041-.308.041-.283 0-.504-.113-.22-.114-.37-.321-.149-.211-.227-.51-.08-.299-.08-.667 0-.44.124-.762.125-.324.346-.534.22-.214.522-.315.302-.104.658-.104.12 0 .239.016.123.015.217.04V44.45h.768v4.447zm-1.404-1.574q0 .265.035.453.038.186.107.306.072.12.176.176.104.053.236.053.195 0 .372-.157.176-.157.374-.431v-1.397q-.091-.035-.227-.057-.132-.022-.267-.022-.186 0-.334.076-.147.075-.254.214-.104.138-.16.34-.058.198-.058.446zm5.819-.082q0 .441-.126.762-.123.32-.346.535-.22.21-.523.315-.302.1-.657.1-.35 0-.652-.053-.299-.05-.572-.139v-4.31h.767v1.044l-.031.63q.173-.224.403-.36.232-.135.557-.135.283 0 .503.114.22.113.368.324.151.207.23.506.079.296.079.667zm-.806.032q0-.264-.038-.45t-.11-.305q-.07-.12-.173-.173-.1-.057-.233-.057-.195 0-.374.157-.176.158-.375.428v1.397q.092.035.224.057.135.022.273.022.183 0 .33-.075.152-.076.256-.214.107-.139.163-.337.057-.201.057-.45zm1.989-2.964q.654 0 .975.314.321.312.321.995v.528q0 .325.142.488.144.16.481.16h.201v.595h-.2q-.17 0-.29.038-.12.035-.195.11-.073.076-.107.195-.032.117-.032.28v.828q0 .324-.075.566-.073.246-.23.41-.157.163-.403.245-.245.085-.588.085h-.265v-.592h.202q.15 0 .27-.034.123-.035.211-.12.088-.082.135-.217.048-.132.048-.33v-.819q0-.236.037-.402.041-.17.12-.28.082-.114.208-.173.126-.06.295-.085-.336-.041-.5-.265-.16-.226-.16-.692v-.525q0-.205-.048-.34-.047-.139-.135-.22-.088-.082-.21-.117-.12-.035-.271-.035h-.202v-.591z" transform="translate(114.636 -27.382)"/></svg>