<svg xmlns="http://www.w3.org/2000/svg" width="96" height="96" viewBox="0 0 25.4 25.4"><g transform="translate(-.023 -66.895) scale(.33333)"><path transform="rotate(-45 138.235 112.998) scale(.26458)" d="M-153 396v66h48v48h96v-24h-72v-48h-48v-42z" style="fill:#7500ae;fill-opacity:1;stroke:none;stroke-width:5.6692915;stroke-linecap:round;stroke-linejoin:round;stroke-miterlimit:4;stroke-dasharray:none;stroke-opacity:1"/><rect ry=".213" y="232.434" x="65.158" height="25.4" width="6.35" style="fill:#0075a3;fill-opacity:1;stroke:none;stroke-width:1.5;stroke-linecap:round;stroke-linejoin:round;stroke-miterlimit:4;stroke-dasharray:none;stroke-opacity:1"/><path d="M58.808 219.734a12.7 12.7 0 0 0-12.7 12.7 12.7 12.7 0 0 0 12.7 12.7 12.7 12.7 0 0 0 12.7-12.7 12.7 12.7 0 0 0-12.7-12.7zm0 6.35a6.35 6.35 0 0 1 6.35 6.35 6.35 6.35 0 0 1-6.35 6.35 6.35 6.35 0 0 1-6.35-6.35 6.35 6.35 0 0 1 6.35-6.35z" style="fill:#0088bd;fill-opacity:1;stroke:none;stroke-width:1.5;stroke-linecap:round;stroke-linejoin:round;stroke-miterlimit:4;stroke-dasharray:none;stroke-opacity:1"/><rect ry="0" y="267.359" x=".07" height="4.763" width="76.2" style="fill:#555595;fill-opacity:1;stroke:none;stroke-width:1.5;stroke-linecap:round;stroke-linejoin:round;stroke-miterlimit:4;stroke-dasharray:none;stroke-opacity:1"/><rect ry="0" y="205.446" x=".07" height="4.762" width="76.2" style="fill:#555595;fill-opacity:1;stroke:none;stroke-width:1.5;stroke-linecap:round;stroke-linejoin:round;stroke-miterlimit:4;stroke-dasharray:none;stroke-opacity:1"/></g></svg>