<svg xmlns="http://www.w3.org/2000/svg" width="288" height="96" viewBox="0 0 76.2 25.4"><g transform="translate(158.354 -.14)"><path style="fill:#4800ff;fill-opacity:1;stroke:none;stroke-width:.26458332;stroke-linecap:round;stroke-linejoin:round;stroke-miterlimit:4;stroke-dasharray:none;stroke-opacity:1" d="M-137.188 8.606a4.233 4.233 0 0 0-2.991 1.242l-.002-.002-4.49 4.49-2.994-2.993-2.993 2.993-2.62-2.62-1.496 1.497 2.62 2.62 1.496 1.496 1.497-1.496 1.496-1.497 1.497 1.497 1.497 1.496 3.398-3.398a4.233 4.233 0 0 0 4.085 3.141 4.233 4.233 0 0 0 2.117-.571v4.805h2.117v-8.467a4.233 4.233 0 0 0-4.234-4.233zm0 2.116a2.117 2.117 0 0 1 2.117 2.117 2.117 2.117 0 0 1-2.117 2.117 2.117 2.117 0 0 1-2.116-2.117 2.117 2.117 0 0 1 2.116-2.117z"/><circle style="fill:#4800ff;fill-opacity:1;stroke:none;stroke-width:.39687499;stroke-linecap:round;stroke-linejoin:round;stroke-miterlimit:4;stroke-dasharray:none;stroke-opacity:1" cx="-129.779" cy="16.014" r="1.587"/><rect ry="2.096" style="fill:#000;fill-opacity:0;stroke:#4800ff;stroke-width:1.58749998;stroke-linecap:round;stroke-linejoin:round;stroke-miterlimit:4;stroke-dasharray:none;stroke-opacity:1" width="37.011" height="15.294" x="-125.737" y="5.19"/><path style="font-style:normal;font-variant:normal;font-weight:400;font-stretch:normal;font-size:10.12173939px;line-height:1.25;font-family:'Source Sans Pro';-inkscape-font-specification:'Source Sans Pro';letter-spacing:0;word-spacing:0;fill:#4800ff;fill-opacity:1;stroke:none;stroke-width:.55539781" d="M-117.371 15.294v-1.927h-1.888v-.612h1.888v-1.926h.674v1.926h1.887v.612h-1.887v1.927zm7.076-2.598-.321.987h2.043l-.321-.987q-.187-.544-.353-1.077-.166-.543-.332-1.106h-.041q-.156.563-.322 1.106-.166.533-.353 1.077zm-2.074 3.625 2.303-6.48h.975l2.302 6.48h-.923l-.643-1.976h-2.479l-.653 1.976zm6.554-.001V9.842h1.94q.57 0 1.037.099.477.099.809.326.332.217.518.583.187.365.187.898 0 .514-.187.89-.176.375-.508.622t-.798.375q-.457.119-1.017.119h-1.12v2.568zm.861-3.24h1.016q.892 0 1.318-.315.435-.326.435-1.018 0-.7-.456-.968-.446-.276-1.338-.276h-.975zm5.014 3.24V9.842H-98q.57 0 1.036.099.478.099.81.326.331.217.518.583.187.365.187.898 0 .514-.187.89-.176.375-.508.622t-.799.375q-.456.119-1.016.119h-1.12v2.568zm.86-3.24h1.017q.892 0 1.317-.315.436-.326.436-1.018 0-.7-.456-.968-.446-.276-1.338-.276h-.975z"/></g></svg>