<svg xmlns="http://www.w3.org/2000/svg" width="344" height="96" viewBox="0 0 91.017 25.4"><g transform="translate(136.885 -25.993)"><path d="M-115.719 34.46a4.233 4.233 0 0 0-2.991 1.241l-.002-.002-4.49 4.49-2.993-2.993-2.994 2.993-2.62-2.619-1.496 1.497 2.62 2.62 1.496 1.496 1.497-1.497 1.497-1.497 1.496 1.497 1.497 1.497 3.398-3.399a4.233 4.233 0 0 0 4.085 3.142 4.233 4.233 0 0 0 2.117-.571v4.804h2.117v-8.466a4.233 4.233 0 0 0-4.234-4.234zm0 2.116a2.117 2.117 0 0 1 2.117 2.117 2.117 2.117 0 0 1-2.117 2.116 2.117 2.117 0 0 1-2.116-2.116 2.117 2.117 0 0 1 2.116-2.117z" style="fill:#63c891;fill-opacity:1;stroke:none;stroke-width:.26458332;stroke-linecap:round;stroke-linejoin:round;stroke-miterlimit:4;stroke-dasharray:none;stroke-opacity:1"/><circle r="1.587" cy="41.868" cx="-108.31" style="fill:#63c891;fill-opacity:1;stroke:none;stroke-width:.39687499;stroke-linecap:round;stroke-linejoin:round;stroke-miterlimit:4;stroke-dasharray:none;stroke-opacity:1"/><path style="font-style:normal;font-variant:normal;font-weight:700;font-stretch:normal;font-size:11.16712761px;line-height:1.25;font-family:Consolas;-inkscape-font-specification:Consolas;letter-spacing:0;word-spacing:0;fill:#63c891;fill-opacity:1;stroke:none;stroke-width:.52345908" d="M-84.747 39.574q0 .763-.218 1.32-.213.556-.6.926-.382.366-.905.546-.524.174-1.14.174-.605 0-1.129-.093-.518-.087-.992-.24v-7.47h1.33v1.81l-.054 1.091q.3-.387.698-.621.403-.235.965-.235.49 0 .872.196.382.197.638.562.262.36.398.878.137.512.137 1.156zm-1.396.054q0-.458-.066-.78-.065-.321-.19-.528-.12-.207-.3-.3-.175-.098-.404-.098-.338 0-.649.272-.305.273-.649.742v2.42q.158.06.387.099.235.038.475.038.316 0 .572-.13.262-.132.442-.371.185-.24.284-.584.098-.349.098-.78zm3.882-2.726v3.61q0 .452.17.687.168.229.512.229.332 0 .638-.273.31-.278.654-.747v-3.506h1.33v5.54h-1.15l-.033-.818q-.174.213-.354.387-.18.175-.393.3-.207.12-.458.185-.245.071-.545.071-.425 0-.747-.136-.316-.142-.53-.398-.212-.256-.32-.61-.104-.36-.104-.802v-3.719zm8.091-1.516q0 .18-.065.338-.065.158-.185.278-.114.115-.273.186-.158.065-.343.065-.186 0-.35-.065-.157-.071-.277-.186-.115-.12-.18-.278-.066-.158-.066-.338 0-.18.066-.338.065-.158.18-.278.12-.12.278-.185.163-.071.349-.071.185 0 .343.07.159.066.273.186.12.12.185.278.066.158.066.338zm-1.471 2.552h-1.565v-1.036h2.928v4.504h1.597v1.036h-4.716v-1.036h1.756zm6.151-2.165h-1.566v-1.036h2.928v6.669h1.598v1.036h-4.716v-1.036h1.755zm7.846 6.669-.033-.818q-.175.213-.36.387-.185.175-.398.3-.213.12-.458.185-.24.071-.534.071-.491 0-.873-.196-.381-.196-.643-.556-.256-.365-.393-.883-.136-.518-.136-1.156 0-.764.213-1.32.218-.562.6-.927.381-.37.905-.545.523-.18 1.14-.18.206 0 .414.027.212.027.376.071v-2.165h1.33v7.705zm-2.432-2.726q0 .458.06.785.065.322.185.529.126.207.306.305.18.093.408.093.339 0 .644-.273.305-.272.649-.747v-2.42q-.158-.06-.393-.099-.229-.038-.463-.038-.322 0-.578.13-.257.132-.442.371-.18.24-.278.59-.098.343-.098.774z"/><path style="font-style:normal;font-variant:normal;font-weight:700;font-stretch:normal;font-size:8.75619984px;line-height:1.25;font-family:'Courier New';-inkscape-font-specification:'Courier New';letter-spacing:0;word-spacing:0;fill:#63c891;fill-opacity:.33333333;stroke:none;stroke-width:.45858997" d="M-98.1 38.959q.188 0 .317.128.128.128.128.308 0 .184-.193.41-.29.338-.487.48-.29.213-.62.213-.248 0-.492-.124-.243-.124-.611-.47-.363-.35-.466-.35-.051 0-.098.033-.094.06-.308.295-.21.235-.295.287-.086.047-.171.047-.18 0-.317-.133-.132-.132-.132-.308 0-.26.445-.68.444-.418.872-.418.235 0 .483.124.248.12.654.521.21.21.308.265.064.034.115.034.06 0 .107-.034.107-.072.342-.35.15-.18.231-.227.086-.051.188-.051zm4.036-2.147q.304.039.595.171.068-.038.128-.055.064-.021.124-.021.196 0 .316.136.124.133.124.45v.281q0 .317-.124.454-.12.132-.312.132-.175 0-.3-.115-.119-.116-.14-.338-.308-.244-.77-.244-.483 0-.71.176-.222.17-.222.38 0 .163.137.29.137.13.573.219l.581.124q.736.15 1.056.449.42.38.42 1.005 0 .547-.386.974-.38.424-1.09.56v.744q0 .317-.124.45-.12.136-.316.136-.193 0-.317-.137-.12-.132-.12-.449v-.744q-.341-.072-.683-.226-.184.154-.342.154-.21 0-.334-.133-.12-.132-.12-.449v-.551q0-.317.12-.45.124-.136.32-.136.159 0 .266.086.107.085.154.265.047.175.132.265.129.137.39.23.265.09.542.09.488 0 .813-.252.218-.167.218-.432 0-.218-.146-.359-.145-.137-.611-.23l-.658-.133q-.697-.137-1.022-.5-.325-.364-.325-.873 0-.504.35-.898.351-.393.937-.496v-.239q0-.312.12-.445.123-.136.32-.136.193 0 .312.136.124.133.124.445z"/><rect ry="2.117" style="fill:none;fill-opacity:1;stroke:#63c891;stroke-width:.59339565;stroke-linecap:round;stroke-linejoin:round;stroke-miterlimit:4;stroke-dasharray:none;stroke-opacity:1" width="55.033" height="16.933" x="-105.135" y="30.226"/></g></svg>