<svg xmlns="http://www.w3.org/2000/svg" width="344" height="96" viewBox="0 0 91.017 25.4"><g transform="translate(123.127 -28.79)"><path style="fill:#8b23c5;fill-opacity:.17647059;stroke:#8b23c5;stroke-width:.52916664;stroke-linecap:round;stroke-linejoin:round;stroke-miterlimit:4;stroke-dasharray:none;stroke-opacity:1" d="M-89.807 33.023c-.87 0-1.57.7-1.57 1.57v13.793c0 .87.7 1.57 1.57 1.57h51.893c.87 0 1.57-.7 1.57-1.57V34.594c0-.87-.7-1.57-1.57-1.57zm37.079 3.356h1.788v2.115h1.33v1.084h-1.33v4.11c0 .3.044.533.133.7a.921.921 0 0 0 .369.384c.168.088.35.145.547.172.207.017.424.026.65.026v.978a5.684 5.684 0 0 1-.783.053 7.458 7.458 0 0 1-.901 0 3.863 3.863 0 0 1-.385-.04c-.335-.053-.595-.18-.783-.383a2.346 2.346 0 0 1-.428-.687 3.625 3.625 0 0 1-.178-.74 7.165 7.165 0 0 1-.03-.555v-4.018h-1.093v-1.084h1.094zm-16.003 2.036v1.269c-.365.061-.665.193-.902.396a2.35 2.35 0 0 0-.561.7 3.35 3.35 0 0 0-.281.793 4.04 4.04 0 0 0-.074.7c0 .344.044.666.133.965.098.291.246.547.443.767.197.212.439.383.724.516.296.123.65.185 1.064.185.109 0 .242-.01.4-.027a3.9 3.9 0 0 0 .517-.119 4.04 4.04 0 0 0 .546-.224 2.01 2.01 0 0 0 .488-.318l.65.886a3.216 3.216 0 0 1-1.138.82c-.433.185-.985.277-1.654.277-.542 0-1.05-.097-1.523-.29a3.71 3.71 0 0 1-1.211-.82 3.93 3.93 0 0 1-.798-1.203 3.705 3.705 0 0 1-.296-1.48c0-.502.089-.978.266-1.427.187-.45.439-.842.754-1.177a3.85 3.85 0 0 1 1.093-.832 3.43 3.43 0 0 1 1.36-.357zm24.854 0v1.269c-.365.061-.665.193-.901.396a2.349 2.349 0 0 0-.562.7 3.34 3.34 0 0 0-.28.793c-.05.274-.075.507-.075.7 0 .344.045.666.134.965.098.291.246.547.443.767.197.212.438.383.724.516.296.123.65.185 1.064.185.108 0 .241-.01.4-.027.167-.026.339-.066.516-.119.187-.061.37-.136.547-.224a2.01 2.01 0 0 0 .487-.318l.65.886a3.216 3.216 0 0 1-1.137.82c-.434.185-.985.277-1.655.277-.542 0-1.05-.097-1.522-.29a3.71 3.71 0 0 1-1.212-.82 3.928 3.928 0 0 1-.798-1.203 3.706 3.706 0 0 1-.295-1.48c0-.502.088-.978.265-1.427.188-.45.44-.842.754-1.177a3.85 3.85 0 0 1 1.094-.832 3.43 3.43 0 0 1 1.359-.357zm-24.248.013c.532.044 1.01.172 1.433.383a3.65 3.65 0 0 1 1.108.82c.306.335.537.718.695 1.15.167.431.25.88.25 1.347 0 .212-.014.424-.044.635h-5.068V41.6h3.414c0-.23-.045-.45-.134-.661a1.704 1.704 0 0 0-.369-.582 2.085 2.085 0 0 0-.561-.462 1.807 1.807 0 0 0-.724-.225zm24.854 0a3.9 3.9 0 0 1 1.434.383c.433.212.802.485 1.108.82.305.335.536.718.694 1.15.167.431.251.88.251 1.347 0 .212-.015.424-.044.635h-5.069V41.6h3.414a1.7 1.7 0 0 0-.133-.661 1.703 1.703 0 0 0-.37-.582 2.088 2.088 0 0 0-.561-.462 1.807 1.807 0 0 0-.724-.225zm-30.632.013v1.665c-.276-.07-.61-.11-1.005-.119-.216 0-.438.018-.665.053-.217.027-.423.07-.62.132v-1.348c.246-.123.541-.216.886-.277.345-.07.813-.106 1.404-.106zm14.983 0c.296 0 .582.027.858.08.285.052.542.14.768.264.237.123.438.29.606.502.177.203.3.458.37.767.068.308.112.62.132.938.03.308.045.617.045.925v1.824c0 .07.005.176.014.317.01.132.03.269.06.41.029.14.073.269.132.383a.485.485 0 0 0 .266.225l-.472.885c-.129 0-.267-.026-.414-.08a1.909 1.909 0 0 1-.414-.224 2.187 2.187 0 0 1-.34-.317 1.554 1.554 0 0 1-.207-.396c-.098.22-.295.418-.59.594a3.32 3.32 0 0 1-.961.37v-1.004c.236-.044.448-.128.635-.251.197-.132.365-.286.503-.463v-2.788a5.69 5.69 0 0 0-.074-1.031c-.05-.256-.133-.44-.252-.555a.749.749 0 0 0-.443-.225 2.987 2.987 0 0 0-.606-.053c-.216 0-.423.027-.62.08a3.346 3.346 0 0 0-.532.171 2.72 2.72 0 0 0-.429.212c-.118.08-.207.14-.266.185l-.665-.912c.099-.097.246-.194.443-.291.197-.106.424-.198.68-.278a5.73 5.73 0 0 1 .828-.185c.305-.052.62-.079.945-.079zm-25.046.027v1.282c-.493.097-.886.37-1.182.819-.296.44-.443.978-.443 1.612 0 .326.034.635.103.926.079.282.187.532.325.753.138.22.305.405.502.555.207.15.439.242.695.278V46a3.867 3.867 0 0 1-1.463-.344 3.643 3.643 0 0 1-1.108-.82 3.737 3.737 0 0 1-.71-1.189 4.28 4.28 0 0 1-.236-1.427c0-.502.079-.973.236-1.414.168-.44.41-.828.724-1.163a3.702 3.702 0 0 1 1.109-.806 3.85 3.85 0 0 1 1.448-.37zm.606 0c.542.026 1.004.132 1.389.317.394.176.748.436 1.064.78l-.798.859a2.144 2.144 0 0 0-.62-.437c-.257-.14-.602-.224-1.035-.25zm4.773.026h1.596l.192.766v6.688h-1.788zm19.401 2.908h.65v.938h-.325c-.197 0-.403.018-.62.053a2.011 2.011 0 0 0-.606.198 1.297 1.297 0 0 0-.473.423c-.118.176-.177.406-.177.687 0 .397.089.692.266.886.187.194.453.308.798.343v1.071a.99.99 0 0 1-.192.013c-.335 0-.66-.04-.975-.119a2.321 2.321 0 0 1-.813-.383 1.834 1.834 0 0 1-.561-.7c-.129-.291-.193-.648-.193-1.071 0-.406.094-.753.28-1.044.198-.3.444-.542.74-.727a3.28 3.28 0 0 1 1.034-.423 4.754 4.754 0 0 1 1.167-.145zm-22.549 2.643.665.859a3.493 3.493 0 0 1-.99.793c-.354.176-.788.278-1.3.304v-1.308c.355-.036.655-.11.901-.225.256-.124.498-.264.724-.423z"/><path style="fill:#8b23c5;fill-opacity:1;stroke:none;stroke-width:.26458332;stroke-linecap:round;stroke-linejoin:round;stroke-miterlimit:4;stroke-dasharray:none;stroke-opacity:1" d="M-101.96 37.256a4.233 4.233 0 0 0-2.992 1.242l-.002-.002-4.49 4.49-2.993-2.993-2.994 2.993-2.619-2.619-1.497 1.497 2.62 2.62 1.496 1.496 1.497-1.497 1.497-1.497 1.496 1.497 1.497 1.497 3.399-3.399a4.233 4.233 0 0 0 4.085 3.142 4.233 4.233 0 0 0 2.116-.571v4.804h2.117V41.49a4.233 4.233 0 0 0-4.233-4.234zm0 2.117a2.117 2.117 0 0 1 2.116 2.117 2.117 2.117 0 0 1-2.116 2.116 2.117 2.117 0 0 1-2.117-2.116 2.117 2.117 0 0 1 2.117-2.117z"/><circle style="fill:#8b23c5;fill-opacity:1;stroke:none;stroke-width:.39687499;stroke-linecap:round;stroke-linejoin:round;stroke-miterlimit:4;stroke-dasharray:none;stroke-opacity:1" cx="-94.552" cy="44.665" r="1.587"/></g></svg>