<svg xmlns="http://www.w3.org/2000/svg" width="304" height="96" viewBox="0 0 80.433 25.4"><g transform="translate(161.151 -44.967)"><path d="M-139.985 53.434a4.233 4.233 0 0 0-2.991 1.242l-.002-.002-4.49 4.49-2.994-2.993-2.993 2.993-2.62-2.62-1.496 1.497 2.62 2.62 1.496 1.496 1.497-1.496 1.496-1.497 1.497 1.497 1.497 1.496 3.398-3.398a4.233 4.233 0 0 0 4.085 3.141 4.233 4.233 0 0 0 2.117-.571v4.805h2.117v-8.467a4.233 4.233 0 0 0-4.234-4.233zm0 2.116a2.117 2.117 0 0 1 2.117 2.117 2.117 2.117 0 0 1-2.117 2.117 2.117 2.117 0 0 1-2.116-2.117 2.117 2.117 0 0 1 2.116-2.117z" style="fill:teal;fill-opacity:1;stroke:none;stroke-width:.26458332;stroke-linecap:round;stroke-linejoin:round;stroke-miterlimit:4;stroke-dasharray:none;stroke-opacity:1"/><circle r="1.587" cy="60.842" cx="-132.576" style="fill:teal;fill-opacity:1;stroke:none;stroke-width:.39687499;stroke-linecap:round;stroke-linejoin:round;stroke-miterlimit:4;stroke-dasharray:none;stroke-opacity:1"/><path d="M-105.538 46.878a5.47 5.47 0 0 0-5.47 5.47v.081a5.44 5.44 0 0 0-3.746-1.49 5.472 5.472 0 0 0-5.018 3.282 5.393 5.393 0 0 0-2.79-.78 5.466 5.466 0 0 0-.315 10.925v.014h31.095v-.11a5.47 5.47 0 1 0 1.094-10.83c-.279.001-.553.03-.82.07a5.54 5.54 0 0 0 .04-.698 5.47 5.47 0 0 0-5.47-5.47c-1.64 0-3.112.73-4.115 1.874a5.46 5.46 0 0 0-4.485-2.338z" style="fill:none;fill-opacity:1;stroke:teal;stroke-width:1.54750705;stroke-miterlimit:4;stroke-dasharray:none;stroke-opacity:1"/><path style="font-style:normal;font-variant:normal;font-weight:700;font-stretch:normal;font-size:12.69999981px;line-height:1.25;font-family:Consolas;-inkscape-font-specification:Consolas;letter-spacing:0;word-spacing:0;fill:teal;fill-opacity:1;stroke:none;stroke-width:.6421904" d="M-114.619 63.955q-1.283 0-1.916-.62-.632-.614-.632-1.953v-1.575q0-.639-.286-.961-.285-.323-.948-.323h-.391v-1.172h.39q.335 0 .571-.068.236-.074.385-.223.148-.15.21-.379.069-.235.069-.558v-1.091q0-.639.142-1.122.15-.484.46-.807.31-.322.787-.483.483-.168 1.16-.168h.52v1.166h-.39q-.298 0-.54.074-.236.069-.41.23-.173.161-.266.428-.093.26-.093.65v1.086q0 .465-.08.794-.075.329-.236.552-.161.217-.41.34-.247.119-.582.168.663.075.986.521.322.44.322 1.358v1.575q0 .403.093.67t.267.428q.173.161.409.23.242.068.54.068h.39v1.165zm6.704-2.461-.037-.93q-.199.241-.41.44-.21.198-.452.34-.242.137-.521.212-.273.08-.608.08-.558 0-.992-.223-.434-.223-.732-.633-.291-.415-.446-1.004-.155-.59-.155-1.315 0-.868.241-1.5.248-.64.683-1.055.434-.421 1.029-.62.595-.204 1.296-.204.236 0 .471.03.242.032.428.081v-2.462h1.513v8.763zm-2.766-3.101q0 .52.068.893.075.366.211.601.143.236.347.348.205.105.465.105.385 0 .732-.31t.738-.85v-2.753q-.18-.068-.446-.111-.26-.044-.527-.044-.366 0-.658.149-.291.149-.502.422-.205.273-.316.67-.112.39-.112.88zm11.466-.161q0 .868-.248 1.5-.242.633-.682 1.055-.434.415-1.03.62-.595.198-1.296.198-.688 0-1.283-.105-.59-.1-1.129-.273V52.73h1.513v2.06l-.062 1.24q.341-.44.794-.708.459-.266 1.098-.266.558 0 .992.223.434.223.725.639.298.409.453.998.155.583.155 1.315zm-1.587.062q0-.521-.075-.887-.074-.366-.217-.602-.136-.235-.341-.34-.198-.112-.459-.112-.384 0-.738.31-.347.31-.738.843v2.754q.18.068.44.111.267.044.54.044.36 0 .651-.15.298-.148.502-.42.211-.274.323-.664.112-.397.112-.887zm3.919-5.842q1.29 0 1.922.62.633.614.633 1.96v1.042q0 .638.279.96.285.317.948.317h.397v1.172h-.397q-.334 0-.57.075-.236.068-.385.217-.142.148-.21.384-.062.23-.062.552v1.63q0 .64-.15 1.117-.142.484-.452.806-.31.323-.794.484-.483.167-1.16.167h-.52V62.79h.397q.297 0 .533-.069.242-.068.415-.235.174-.161.267-.428.093-.26.093-.651v-1.613q0-.465.074-.793.081-.335.236-.552.161-.223.41-.341.247-.118.582-.168-.663-.08-.986-.52-.316-.447-.316-1.365V55.02q0-.404-.093-.67-.093-.273-.267-.434-.173-.161-.415-.23-.236-.068-.533-.068h-.397v-1.166z"/></g></svg>