<svg xmlns="http://www.w3.org/2000/svg" xmlns:xlink="http://www.w3.org/1999/xlink" width="288" height="288" viewBox="0 0 76.2 76.2"><defs><pattern xlink:href="#a" id="g" patternTransform="translate(-22.225 254.138) scale(.26458)"/><pattern xlink:href="#b" id="f" patternTransform="translate(-49.212 239.85) scale(.26458)"/><pattern xlink:href="#c" id="b" patternTransform="translate(-36.512 244.613) scale(.26458)"/><pattern xlink:href="#d" id="e" patternTransform="rotate(-45 226.065 104.892) scale(.26459)"/><pattern xlink:href="#c" id="a" patternTransform="translate(-9.525 258.9) scale(.26458)"/><pattern patternUnits="userSpaceOnUse" width="48" height="48" patternTransform="translate(-42.862 244.613) scale(.26458)" id="c"><g transform="translate(96 -906.52) scale(3.77953)"><rect ry="0" y="239.85" x="-25.4" height="3.175" width="3.175" style="fill:#00f;fill-opacity:.06666667;stroke:none;stroke-width:1.5;stroke-linecap:round;stroke-linejoin:round;stroke-miterlimit:4;stroke-dasharray:none;stroke-opacity:1"/><path style="fill:#000;fill-opacity:.06666667;stroke:none;stroke-width:1.5;stroke-linecap:round;stroke-linejoin:round;stroke-miterlimit:4;stroke-dasharray:none;stroke-opacity:1" d="M-22.225 243.025h3.175v3.175h-3.175z"/><path style="fill:#ff0001;fill-opacity:.0627451;stroke:none;stroke-width:1.5;stroke-linecap:round;stroke-linejoin:round;stroke-miterlimit:4;stroke-dasharray:none;stroke-opacity:1" d="M-25.4 246.2h3.175v3.175H-25.4z"/><path style="fill:#fff;fill-opacity:.06666667;stroke:none;stroke-width:1.5;stroke-linecap:round;stroke-linejoin:round;stroke-miterlimit:4;stroke-dasharray:none;stroke-opacity:1" d="M-22.225 249.375h3.175v3.175h-3.175z"/><rect style="fill:#fff;fill-opacity:.06666667;stroke:none;stroke-width:1.5;stroke-linecap:round;stroke-linejoin:round;stroke-miterlimit:4;stroke-dasharray:none;stroke-opacity:1" width="3.175" height="3.175" x="-19.05" y="239.85" ry="0"/><path style="fill:#00f;fill-opacity:.06666667;stroke:none;stroke-width:1.5;stroke-linecap:round;stroke-linejoin:round;stroke-miterlimit:4;stroke-dasharray:none;stroke-opacity:1" d="M-15.875 243.025h3.175v3.175h-3.175zm-3.175 3.175h3.175v3.175h-3.175z"/><path style="fill:#ff0001;fill-opacity:.0627451;stroke:none;stroke-width:1.5;stroke-linecap:round;stroke-linejoin:round;stroke-miterlimit:4;stroke-dasharray:none;stroke-opacity:1" d="M-15.875 249.375h3.175v3.175h-3.175z"/></g></pattern><pattern patternUnits="userSpaceOnUse" width="48" height="48" patternTransform="translate(-74.612 232.706) scale(.26458)" id="d"><g transform="translate(96 -906.52) scale(3.77953)"><rect ry="0" y="239.85" x="-25.4" height="3.175" width="3.175" style="fill:#00f;fill-opacity:.06666667;stroke:none;stroke-width:1.5;stroke-linecap:round;stroke-linejoin:round;stroke-miterlimit:4;stroke-dasharray:none;stroke-opacity:1"/><path style="fill:#000;fill-opacity:.06666667;stroke:none;stroke-width:1.5;stroke-linecap:round;stroke-linejoin:round;stroke-miterlimit:4;stroke-dasharray:none;stroke-opacity:1" d="M-22.225 243.025h3.175v3.175h-3.175z"/><path style="fill:#f0f;fill-opacity:.06666667;stroke:none;stroke-width:1.5;stroke-linecap:round;stroke-linejoin:round;stroke-miterlimit:4;stroke-dasharray:none;stroke-opacity:1" d="M-25.4 246.2h3.175v3.175H-25.4z"/><path style="fill:#fff;fill-opacity:.06666667;stroke:none;stroke-width:1.5;stroke-linecap:round;stroke-linejoin:round;stroke-miterlimit:4;stroke-dasharray:none;stroke-opacity:1" d="M-22.225 249.375h3.175v3.175h-3.175z"/><rect style="fill:#fff;fill-opacity:.06666667;stroke:none;stroke-width:1.5;stroke-linecap:round;stroke-linejoin:round;stroke-miterlimit:4;stroke-dasharray:none;stroke-opacity:1" width="3.175" height="3.175" x="-19.05" y="239.85" ry="0"/><path style="fill:#00f;fill-opacity:.06666667;stroke:none;stroke-width:1.5;stroke-linecap:round;stroke-linejoin:round;stroke-miterlimit:4;stroke-dasharray:none;stroke-opacity:1" d="M-15.875 243.025h3.175v3.175h-3.175zm-3.175 3.175h3.175v3.175h-3.175z"/><path style="fill:#f0f;fill-opacity:.06666667;stroke:none;stroke-width:1.5;stroke-linecap:round;stroke-linejoin:round;stroke-miterlimit:4;stroke-dasharray:none;stroke-opacity:1" d="M-15.875 249.375h3.175v3.175h-3.175z"/></g></pattern></defs><g transform="translate(0 -195.4)"><path d="m4.391 229.86 12.348 12.348 4.49-4.49 4.49-4.49 4.49 4.49 4.49 4.49 4.49-4.49 13.47-13.47-4.49-4.49-13.47 13.47-8.98-8.98-8.98 8.98-7.858-7.858z" style="fill:#7500ae;fill-opacity:1;stroke:none;stroke-width:1.5;stroke-linecap:round;stroke-linejoin:round;stroke-miterlimit:4;stroke-dasharray:none;stroke-opacity:1"/><path style="fill:url(#e);fill-opacity:1;stroke:none;stroke-width:1.5;stroke-linecap:round;stroke-linejoin:round;stroke-miterlimit:4;stroke-dasharray:none;stroke-opacity:1" d="m4.391 229.86 12.348 12.348 4.49-4.49 4.49-4.49 4.49 4.49 4.49 4.49 4.49-4.49 13.47-13.47-4.49-4.49-13.47 13.47-8.98-8.98-8.98 8.98-7.858-7.858z"/><rect style="fill:#0075a3;fill-opacity:1;stroke:none;stroke-width:1.5;stroke-linecap:round;stroke-linejoin:round;stroke-miterlimit:4;stroke-dasharray:none;stroke-opacity:1" width="6.35" height="25.4" x="63.5" y="228.738" ry=".213"/><rect ry=".213" y="228.738" x="63.5" height="25.4" width="6.35" style="fill:url(#f);fill-opacity:1;stroke:none;stroke-width:1.5;stroke-linecap:round;stroke-linejoin:round;stroke-miterlimit:4;stroke-dasharray:none;stroke-opacity:1"/><path style="fill:#0088bd;fill-opacity:1;stroke:none;stroke-width:1.5;stroke-linecap:round;stroke-linejoin:round;stroke-miterlimit:4;stroke-dasharray:none;stroke-opacity:1" d="M57.15 216.038a12.7 12.7 0 0 0-12.7 12.7 12.7 12.7 0 0 0 12.7 12.7 12.7 12.7 0 0 0 12.7-12.7 12.7 12.7 0 0 0-12.7-12.7zm0 6.35a6.35 6.35 0 0 1 6.35 6.35 6.35 6.35 0 0 1-6.35 6.35 6.35 6.35 0 0 1-6.35-6.35 6.35 6.35 0 0 1 6.35-6.35z"/><path d="M57.15 216.038a12.7 12.7 0 0 0-12.7 12.7 12.7 12.7 0 0 0 12.7 12.7 12.7 12.7 0 0 0 12.7-12.7 12.7 12.7 0 0 0-12.7-12.7zm0 6.35a6.35 6.35 0 0 1 6.35 6.35 6.35 6.35 0 0 1-6.35 6.35 6.35 6.35 0 0 1-6.35-6.35 6.35 6.35 0 0 1 6.35-6.35z" style="fill:url(#g);fill-opacity:1;stroke:none;stroke-width:1.5;stroke-linecap:round;stroke-linejoin:round;stroke-miterlimit:4;stroke-dasharray:none;stroke-opacity:1"/><rect style="fill:#555595;fill-opacity:1;stroke:none;stroke-width:1.5;stroke-linecap:round;stroke-linejoin:round;stroke-miterlimit:4;stroke-dasharray:none;stroke-opacity:1" width="76.2" height="3.969" y="261.281" ry="0"/><rect style="fill:#555595;fill-opacity:1;stroke:none;stroke-width:1.5;stroke-linecap:round;stroke-linejoin:round;stroke-miterlimit:4;stroke-dasharray:none;stroke-opacity:1" width="76.2" height="3.969" y="201.75" ry="0"/></g></svg>